<?xml version="1.0" standalone="no"?>
<!DOCTYPE svg PUBLIC "-//W3C//DTD SVG 1.1//EN" "http://www.w3.org/Graphics/SVG/1.1/DTD/svg11.dtd" >
<svg xmlns="http://www.w3.org/2000/svg">
<metadata>Generated by IcoMoon</metadata>
<defs>
<font id="gwangi" horiz-adv-x="1024">
<font-face units-per-em="1024" ascent="960" descent="-64" />
<missing-glyph horiz-adv-x="1024" />
<glyph unicode="&#x20;" horiz-adv-x="512" d="" />
<glyph unicode="&#xe900;" glyph-name="calendar" horiz-adv-x="951" d="M73.213 0h804.571v585.143h-804.571v-585.143zM292.641 694.857v164.571c0 10.286-8 18.286-18.286 18.286h-36.571c-10.286 0-18.286-8-18.286-18.286v-164.571c0-10.286 8-18.286 18.286-18.286h36.571c10.286 0 18.286 8 18.286 18.286zM731.499 694.857v164.571c0 10.286-8 18.286-18.286 18.286h-36.571c-10.286 0-18.286-8-18.286-18.286v-164.571c0-10.286 8-18.286 18.286-18.286h36.571c10.286 0 18.286 8 18.286 18.286zM950.927 731.428v-731.429c0-40-33.143-73.143-73.143-73.143h-804.571c-40 0-73.143 33.143-73.143 73.143v731.429c0 40 33.143 73.143 73.143 73.143h73.143v54.857c0 50.286 41.143 91.429 91.429 91.429h36.571c50.286 0 91.429-41.143 91.429-91.429v-54.857h219.429v54.857c0 50.286 41.143 91.429 91.429 91.429h36.571c50.286 0 91.429-41.143 91.429-91.429v-54.857h73.143c40 0 73.143-33.143 73.143-73.143z" />
<glyph unicode="&#xe901;" glyph-name="calendar-plus" horiz-adv-x="951" d="M877.785 804.571c40 0 73.143-33.143 73.143-73.143v-731.429c0-40-33.143-73.143-73.143-73.143h-804.571c-40 0-73.143 33.143-73.143 73.143v731.429c0 40 33.143 73.143 73.143 73.143h73.143v54.857c0 50.286 41.143 91.429 91.429 91.429h36.571c50.286 0 91.429-41.143 91.429-91.429v-54.857h219.429v54.857c0 50.286 41.143 91.429 91.429 91.429h36.571c50.286 0 91.429-41.143 91.429-91.429v-54.857h73.143zM658.357 859.428v-164.571c0-10.286 8-18.286 18.286-18.286h36.571c10.286 0 18.286 8 18.286 18.286v164.571c0 10.286-8 18.286-18.286 18.286h-36.571c-10.286 0-18.286-8-18.286-18.286zM219.5 859.428v-164.571c0-10.286 8-18.286 18.286-18.286h36.571c10.286 0 18.286 8 18.286 18.286v164.571c0 10.286-8 18.286-18.286 18.286h-36.571c-10.286 0-18.286-8-18.286-18.286zM877.785 0v585.143h-804.571v-585.143h804.571zM512.071 329.143h128c10.286 0 18.286-8 18.286-18.286v-36.571c0-10.286-8-18.286-18.286-18.286h-128v-128c0-10.286-8-18.286-18.286-18.286h-36.571c-10.286 0-18.286 8-18.286 18.286v128h-128c-10.286 0-18.286 8-18.286 18.286v36.571c0 10.286 8 18.286 18.286 18.286h128v128c0 10.286 8 18.286 18.286 18.286h36.571c10.286 0 18.286-8 18.286-18.286v-128z" />
<glyph unicode="&#xe902;" glyph-name="calendar-times" horiz-adv-x="951" d="M634.927 159.428l-26.286-26.286c-6.857-6.857-18.286-6.857-25.714 0l-107.429 108-107.429-108c-7.429-6.857-18.857-6.857-25.714 0l-26.286 26.286c-6.857 6.857-6.857 18.286 0 25.714l108 107.429-108 107.429c-6.857 7.429-6.857 18.857 0 25.714l26.286 26.286c6.857 6.857 18.286 6.857 25.714 0l107.429-107.429 107.429 107.429c7.429 6.857 18.857 6.857 25.714 0l26.286-26.286c6.857-6.857 6.857-18.286 0-25.714l-107.429-107.429 107.429-107.429c6.857-7.429 6.857-18.857 0-25.714zM73.213 0h804.571v585.143h-804.571v-585.143zM292.641 694.857v164.571c0 10.286-8 18.286-18.286 18.286h-36.571c-10.286 0-18.286-8-18.286-18.286v-164.571c0-10.286 8-18.286 18.286-18.286h36.571c10.286 0 18.286 8 18.286 18.286zM731.499 694.857v164.571c0 10.286-8 18.286-18.286 18.286h-36.571c-10.286 0-18.286-8-18.286-18.286v-164.571c0-10.286 8-18.286 18.286-18.286h36.571c10.286 0 18.286 8 18.286 18.286zM950.927 731.428v-731.429c0-40-33.143-73.143-73.143-73.143h-804.571c-40 0-73.143 33.143-73.143 73.143v731.429c0 40 33.143 73.143 73.143 73.143h73.143v54.857c0 50.286 41.143 91.429 91.429 91.429h36.571c50.286 0 91.429-41.143 91.429-91.429v-54.857h219.429v54.857c0 50.286 41.143 91.429 91.429 91.429h36.571c50.286 0 91.429-41.143 91.429-91.429v-54.857h73.143c40 0 73.143-33.143 73.143-73.143z" />
<glyph unicode="&#xe903;" glyph-name="calendar-minus" horiz-adv-x="951" d="M658.356 310.857v-36.571c0-10.286-8-18.286-18.286-18.286h-329.143c-10.286 0-18.286 8-18.286 18.286v36.571c0 10.286 8 18.286 18.286 18.286h329.143c10.286 0 18.286-8 18.286-18.286zM73.213 0h804.571v585.143h-804.571v-585.143zM292.641 694.857v164.571c0 10.286-8 18.286-18.286 18.286h-36.571c-10.286 0-18.286-8-18.286-18.286v-164.571c0-10.286 8-18.286 18.286-18.286h36.571c10.286 0 18.286 8 18.286 18.286zM731.499 694.857v164.571c0 10.286-8 18.286-18.286 18.286h-36.571c-10.286 0-18.286-8-18.286-18.286v-164.571c0-10.286 8-18.286 18.286-18.286h36.571c10.286 0 18.286 8 18.286 18.286zM950.927 731.428v-731.429c0-40-33.143-73.143-73.143-73.143h-804.571c-40 0-73.143 33.143-73.143 73.143v731.429c0 40 33.143 73.143 73.143 73.143h73.143v54.857c0 50.286 41.143 91.429 91.429 91.429h36.571c50.286 0 91.429-41.143 91.429-91.429v-54.857h219.429v54.857c0 50.286 41.143 91.429 91.429 91.429h36.571c50.286 0 91.429-41.143 91.429-91.429v-54.857h73.143c40 0 73.143-33.143 73.143-73.143z" />
<glyph unicode="&#xe904;" glyph-name="calendar-check" horiz-adv-x="951" d="M744.641 400l-292.571-292.571c-7.429-6.857-18.857-6.857-26.286 0l-164.571 164.571c-6.857 7.429-6.857 18.857 0 25.714l26.286 26.286c6.857 6.857 18.286 6.857 25.714 0l125.714-125.714 253.714 253.714c7.429 6.857 18.857 6.857 25.714 0l26.286-26.286c6.857-6.857 6.857-18.286 0-25.714zM73.213 0h804.571v585.143h-804.571v-585.143zM292.641 694.857v164.571c0 10.286-8 18.286-18.286 18.286h-36.571c-10.286 0-18.286-8-18.286-18.286v-164.571c0-10.286 8-18.286 18.286-18.286h36.571c10.286 0 18.286 8 18.286 18.286zM731.499 694.857v164.571c0 10.286-8 18.286-18.286 18.286h-36.571c-10.286 0-18.286-8-18.286-18.286v-164.571c0-10.286 8-18.286 18.286-18.286h36.571c10.286 0 18.286 8 18.286 18.286zM950.927 731.428v-731.429c0-40-33.143-73.143-73.143-73.143h-804.571c-40 0-73.143 33.143-73.143 73.143v731.429c0 40 33.143 73.143 73.143 73.143h73.143v54.857c0 50.286 41.143 91.429 91.429 91.429h36.571c50.286 0 91.429-41.143 91.429-91.429v-54.857h219.429v54.857c0 50.286 41.143 91.429 91.429 91.429h36.571c50.286 0 91.429-41.143 91.429-91.429v-54.857h73.143c40 0 73.143-33.143 73.143-73.143z" />
<glyph unicode="&#xe905;" glyph-name="reply-all" horiz-adv-x="1022" d="M366.429 312.857v-40c0-14.857-9.143-28-22.286-33.714-4.571-1.714-9.714-2.857-14.286-2.857-9.714 0-18.857 3.429-25.714 10.857l-292.571 292.571c-14.286 14.286-14.286 37.143 0 51.429l292.571 292.571c10.286 10.857 26.286 13.714 40 8 13.143-5.714 22.286-18.857 22.286-33.714v-39.429l-226.857-227.429c-14.286-14.286-14.286-37.143 0-51.429zM1024.715 291.143c0-118.857-89.714-293.714-93.714-301.143-2.857-6.286-9.143-9.714-16-9.714-1.714 0-3.429 0-5.143 0.571-8.571 2.857-13.714 10.857-13.143 19.429 16.571 156-2.857 258.857-60.571 322.857-48.571 54.286-127.429 83.429-250.286 93.143v-143.429c0-14.857-9.143-28-22.286-33.714-4.571-1.714-9.714-2.857-14.286-2.857-9.714 0-18.857 3.429-25.714 10.857l-292.571 292.571c-14.286 14.286-14.286 37.143 0 51.429l292.571 292.571c10.286 10.857 26.286 13.714 40 8 13.143-5.714 22.286-18.857 22.286-33.714v-149.714c157.714-10.857 270.286-52.571 342.286-126.286 86.286-88.571 96.571-208.571 96.571-290.857z" />
<glyph unicode="&#xe906;" glyph-name="bullseye" horiz-adv-x="878" d="M585.286 438.857c0-80.571-65.714-146.286-146.286-146.286s-146.286 65.714-146.286 146.286 65.714 146.286 146.286 146.286 146.286-65.714 146.286-146.286zM658.429 438.857c0 121.143-98.286 219.429-219.429 219.429s-219.429-98.286-219.429-219.429 98.286-219.429 219.429-219.429 219.429 98.286 219.429 219.429zM731.572 438.857c0-161.714-130.857-292.571-292.571-292.571s-292.571 130.857-292.571 292.571 130.857 292.571 292.571 292.571 292.571-130.857 292.571-292.571zM804.714 438.857c0 201.714-164 365.714-365.714 365.714s-365.714-164-365.714-365.714 164-365.714 365.714-365.714 365.714 164 365.714 365.714zM877.857 438.857c0-242.286-196.571-438.857-438.857-438.857s-438.857 196.571-438.857 438.857 196.571 438.857 438.857 438.857 438.857-196.571 438.857-438.857z" />
<glyph unicode="&#xe907;" glyph-name="group-request" horiz-adv-x="1268" d="M194.213 484.079c-76.995-16.091-152.43 33.256-168.521 110.251-16.091 76.946 33.304 152.43 110.202 168.472 77.044 16.091 152.381-33.256 168.619-110.153 15.896-76.995-33.256-152.43-110.299-168.57zM629.95 668.223c-78.604 0-142.336 63.732-142.336 142.336s63.732 142.336 142.336 142.336c78.604 0 142.336-63.732 142.336-142.336s-63.732-142.336-142.336-142.336zM1247.378 393.128c11.020-10.971 11.020-28.867 0-39.838l-299.154-268.678c-5.364-5.413-12.581-8.29-19.895-8.29-3.657 0-7.363 0.78-10.874 2.194-10.484 4.389-16.725 14.677-16.725 26.039v147.505c-62.708 0-116.736-1.463-163.938-8.485-0.098-0.049-0.146-0.049-0.244-0.049-0.049 0-0.098-0.049-0.146-0.049-12.142-1.804-23.796-4.047-35.011-6.68h-0.146c-8.728-2.048-17.164-4.389-25.405-7.022-3.17-0.975-6.29-2.097-9.411-3.218-6.29-2.146-12.434-4.584-18.432-7.217-2.536-1.073-5.071-2.097-7.558-3.218-7.753-3.706-15.311-7.802-22.626-12.19-2.438-1.512-4.827-3.17-7.217-4.73-5.608-3.657-11.069-7.607-16.433-11.8-2.097-1.707-4.291-3.365-6.388-5.071-6.827-5.803-13.458-12.044-19.895-18.773-1.804-1.902-3.511-3.998-5.266-5.949-5.12-5.656-10.094-11.654-14.921-18.042-1.804-2.341-3.608-4.584-5.364-7.022-6.046-8.387-11.947-17.31-17.603-26.868-1.219-2.048-2.389-4.291-3.56-6.388-4.73-8.29-9.362-17.067-13.897-26.331-1.512-3.072-3.023-6.144-4.535-9.314-5.364-11.605-10.63-23.65-15.75-36.62-0.585-1.56-1.17-3.218-1.755-4.779-4.632-11.947-9.118-24.625-13.556-37.839-1.317-3.852-2.584-7.802-3.852-11.8-4.876-15.165-9.752-30.866-14.385-47.787 0 26.429 1.073 51.249 2.584 75.386 0.293 5.071 0.585 10.338 0.975 15.311 1.609 21.211 3.95 41.301 6.68 60.709 1.073 7.656 2.292 15.019 3.56 22.333 2.243 13.458 4.876 26.283 7.656 38.814 2.926 13.166 6.144 25.893 9.606 38.132 1.707 5.9 3.462 11.752 5.266 17.506 6.534 20.578 13.702 40.082 21.65 58.124 67.486 153.161 184.076 215.43 296.96 235.13 15.311 2.682 30.476 4.584 45.544 5.949 0.634 0.049 1.365 0.146 2.048 0.244 15.165 1.268 30.184 1.95 44.763 1.95v145.115c0 11.459 6.242 21.699 16.725 25.99 4.681 1.95 9.655 2.048 14.482 1.414 1.17-0.146 2.292-0.39 3.462-0.683 4.681-1.219 9.265-3.267 12.824-6.875l299.154-266.24zM360.282 27.248c-1.658-20.090-2.389-41.399-3.023-62.903-37.059 26.965-84.066 66.316-101.278 91.721l-41.984-8.777c-58.319-12.19-116.2 25.649-128.293 83.968l-33.304 159.159c-12.19 58.514 25.6 116.346 83.919 128.536l132.779 27.697c45.251 9.411 89.917-11.459 113.518-48.421 23.064 11.849 47.445 21.992 73.387 30.232v79.287c0 59.733 48.664 108.544 108.446 108.544h135.656c31.793 0 60.27-14.238 80.165-36.376-107.764-21.455-236.885-79.238-324.315-223.232v14.531c-19.456-7.070-37.79-15.262-55.198-24.625l14.824-71.095c-22.382-54.857-39.595-119.028-49.542-194.219-6.193-2.584-12.629-4.73-19.407-6.193l-32.183-6.68c12.483-14.677 28.233-28.282 45.836-41.155z" />
<glyph unicode="&#xe908;" glyph-name="quill" d="M0-73.143c128 384 463 1024 1024 1024-263-211-384-704-576-704s-192 0-192 0l-192-320h-64z" />
<glyph unicode="&#xe909;" glyph-name="paper-plane" d="M1007.428 944.569c12-8.571 17.714-22.286 15.429-36.571l-146.286-877.714c-1.714-10.857-8.571-20-18.286-25.714-5.143-2.857-11.429-4.571-17.714-4.571-4.571 0-9.143 1.143-13.714 2.857l-258.857 105.714-138.286-168.571c-6.857-8.571-17.143-13.143-28-13.143-4 0-8.571 0.571-12.571 2.286-14.286 5.143-24 18.857-24 34.286v199.429l493.714 605.143-610.857-528.571-225.714 92.571c-13.143 5.143-21.714 17.143-22.857 31.429-0.571 13.714 6.286 26.857 18.286 33.714l950.857 548.571c5.714 3.429 12 5.143 18.286 5.143 7.429 0 14.857-2.286 20.571-6.286z" />
<glyph unicode="&#xe90a;" glyph-name="mail" d="M1024.001 581.714v-453.714c0-50.286-41.143-91.429-91.429-91.429h-841.143c-50.286 0-91.429 41.143-91.429 91.429v453.714c17.143-18.857 36.571-35.429 57.714-49.714 94.857-64.571 190.857-129.143 284-197.143 48-35.429 107.429-78.857 169.714-78.857h1.143c62.286 0 121.714 43.429 169.714 78.857 93.143 67.429 189.143 132.571 284.571 197.143 20.571 14.286 40 30.857 57.143 49.714zM1024.001 749.714c0-64-47.429-121.714-97.714-156.571-89.143-61.714-178.857-123.429-267.429-185.714-37.143-25.714-100-78.286-146.286-78.286h-1.143c-46.286 0-109.143 52.571-146.286 78.286-88.571 62.286-178.286 124-266.857 185.714-40.571 27.429-98.286 92-98.286 144 0 56 30.286 104 91.429 104h841.143c49.714 0 91.429-41.143 91.429-91.429z" />
<glyph unicode="&#xe90b;" glyph-name="notification" d="M512 950.857c282.77 0 512-229.23 512-512s-229.23-512-512-512c-282.77 0-512 229.23-512 512s229.23 512 512 512zM448 246.857v-128h128v128h-128zM448 758.857v-384h128v384h-128z" />
<glyph unicode="&#xe90c;" glyph-name="box-add" d="M832 886.857h-640l-192-192v-672c0-17.674 14.326-32 32-32h960c17.672 0 32 14.326 32 32v672l-192 192zM512 118.857l-320 256h192v192h256v-192h192l-320-256zM154.51 758.857l64 64h586.978l64-64h-714.978z" />
<glyph unicode="&#xe90d;" glyph-name="visibility-on" d="M512 566.857c70 0 128-58 128-128s-58-128-128-128-128 58-128 128 58 128 128 128zM512 224.857c118 0 214 96 214 214s-96 214-214 214-214-96-214-214 96-214 214-214zM512 758.857c214 0 396-132 470-320-74-188-256-320-470-320s-396 132-470 320c74 188 256 320 470 320z" />
<glyph unicode="&#xe90e;" glyph-name="visibility-off" d="M507 587.857h6c70 0 128-58 128-128v-8zM323 553.857c-14-28-24-60-24-94 0-118 96-214 214-214 34 0 66 10 94 24l-66 66c-8-2-18-4-28-4-70 0-128 58-128 128 0 10 2 20 4 28zM87 789.857l54 54 756-756-54-54c-47.968 47.365-96.265 94.401-144 142-58-24-120-36-186-36-214 0-396 132-470 320 34 84 90 156 160 212-39.017 38.983-77.307 78.693-116 118zM513 673.857c-28 0-54-6-78-16l-92 92c52 20 110 30 170 30 214 0 394-132 468-320-32-80-82-148-146-202l-124 124c10 24 16 50 16 78 0 118-96 214-214 214z" />
<glyph unicode="&#xe90f;" glyph-name="asterisk" d="M955.438 182.857c-15.31-26.647-43.115-41.377-71.748-41.377-14.027 0-28.261 3.558-41.294 11.089l-247.518 142.958v-285.916c0-45.68-37.074-82.754-82.754-82.754s-82.754 37.074-82.754 82.754v285.957l-247.642-142.999c-13.034-7.531-27.267-11.089-41.294-11.089-28.592 0-56.438 14.73-71.748 41.377-22.84 39.598-9.31 90.202 30.288 112.959l247.559 142.999-247.642 142.999c-39.598 22.882-53.128 73.403-30.288 113.001s73.486 53.17 113.042 30.288l247.6-142.958v285.957c0 45.68 37.074 82.754 82.754 82.754s82.754-37.074 82.754-82.754v-285.916l247.518 142.958c39.556 22.882 90.326 9.31 113.042-30.288 22.84-39.598 9.31-90.202-30.288-113.001l-247.476-142.999 247.518-142.958c39.598-22.84 53.211-73.444 30.371-113.042z" />
<glyph unicode="&#xe910;" glyph-name="star-off" d="M1024 553.807l-353.78 51.408-158.22 320.582-158.216-320.582-353.784-51.408 256-249.538-60.432-352.352 316.432 166.358 316.432-166.358-60.434 352.352 256.002 249.538zM512 197.359l-223.462-117.48 42.676 248.83-180.786 176.222 249.84 36.304 111.732 226.396 111.736-226.396 249.836-36.304-180.788-176.222 42.678-248.83-223.462 117.48z" />
<glyph unicode="&#xe911;" glyph-name="star-half" d="M1024 553.807l-353.78 51.408-158.22 320.582-158.216-320.582-353.784-51.408 256-249.538-60.432-352.352 316.432 166.358 316.432-166.358-60.434 352.352 256.002 249.538zM512 197.359l-0.942-0.496 0.942 570.768 111.736-226.396 249.836-36.304-180.788-176.222 42.678-248.83-223.462 117.48z" />
<glyph unicode="&#xe912;" glyph-name="star-on" d="M947.093 536.541l-300.639 43.686-134.454 272.428-134.45-272.428-300.642-43.686 217.546-212.056-51.354-299.426 268.901 141.37 268.901-141.37-51.356 299.426 217.548 212.056z" />
<glyph unicode="&#xe913;" glyph-name="lock" horiz-adv-x="781" d="M109.261 627.443v-98.636h-6.563c-41.308 0-74.894-33.586-74.894-74.894v-412.496c0-41.308 33.586-74.894 74.894-74.894h575.603c41.308 0 74.894 33.586 74.894 74.894v412.689c0 41.308-33.586 74.894-74.894 74.894h-1.931v98.636c0 156.351-127.204 283.554-283.554 283.554-156.351-0.193-283.554-127.397-283.554-283.747zM434.896 229.424c-5.791-4.246-7.335-8.3-7.335-15.056 0.193-30.305 0.193-60.417 0.193-90.722v0c0.579-12.547-5.791-24.9-16.986-30.498-26.444-13.512-52.889 5.405-52.889 30.498v0.193c0 30.305 0 60.61 0.193 90.915 0 6.177-1.351 10.23-6.756 14.284-27.41 20.268-36.482 54.819-22.777 85.124 13.319 29.533 45.94 46.905 76.632 40.729 34.166-6.949 57.907-34.359 58.294-68.524 0-23.742-9.459-43.045-28.568-56.942zM233.377 627.443c0 88.020 71.612 159.439 159.439 159.439 88.020 0 159.439-71.612 159.439-159.439v-98.636h-318.878v98.636z" />
<glyph unicode="&#xe914;" glyph-name="balloon" d="M512 950.856c-282.775 0-511.983-196.538-511.983-439.027 0-199.961 156.058-368.372 369.332-421.392l142.651-163.58 142.651 163.58c213.273 53.022 369.332 221.433 369.332 421.392 0 242.489-229.208 439.027-511.983 439.027z" />
<glyph unicode="&#xe915;" glyph-name="bell" d="M754.175 524.924c-116.736 251.238-177.459 346.675-368.179 342.682-67.942-1.382-51.661 49.254-103.475 30.054-51.712-19.2-7.322-47.309-60.262-90.778-148.582-122.010-134.912-234.854-65.997-503.808 29.030-113.306-69.99-118.835-30.822-228.608 28.621-80.077 239.565-113.613 462.080-31.078 222.566 82.586 362.803 246.477 334.182 326.554-39.168 109.824-118.323 49.203-167.526 154.982zM563.404 111.074c-198.758-73.728-362.086-30.413-368.998-11.11-11.878 33.28 64.154 144.179 291.379 228.506s354.048 53.043 367.309 15.923c7.834-21.965-90.88-159.539-289.69-233.318zM499.506 289.967c-103.885-38.554-176.077-82.637-222.874-122.317 32.922-29.901 94.566-37.171 155.955-14.387 78.182 28.928 126.259 95.539 107.264 148.685-0.256 0.666-0.563 1.178-0.819 1.843-12.851-4.198-26.010-8.755-39.526-13.824z" />
<glyph unicode="&#xe916;" glyph-name="remove" d="M732.246 755.698l-207.509-207.509c-7.327-7.327-17.094-7.327-24.408 0l-207.509 207.509c-14.647 14.647-34.172 14.647-48.819 0l-48.819-48.819c-14.647-14.647-14.647-34.172 0-48.819l207.509-207.509c7.327-7.327 7.327-17.094 0-24.408l-207.509-207.509c-14.647-14.647-14.647-34.172 0-48.819l48.819-48.819c14.647-14.647 34.172-14.647 48.819 0l207.509 207.509c7.327 7.327 17.094 7.327 24.408 0l207.509-207.509c14.647-14.647 34.172-14.647 48.819 0l48.819 48.819c14.647 14.647 14.647 34.172 0 48.819l-207.509 207.509c-7.327 7.327-7.327 17.094 0 24.408l207.509 207.509c14.647 14.647 14.647 34.172 0 48.819l-48.819 48.819c-14.647 14.647-34.172 14.647-48.819 0v0z" />
<glyph unicode="&#xe917;" glyph-name="most-member" d="M150 162.857l-64 64 320 320 170-172 302 340 60-60-362-408-170 172z" />
<glyph unicode="&#xe918;" glyph-name="cog" d="M894.836 345.173h-48.297c-7.846-28.421-19.081-55.38-33.492-80.366l44.649-44.617c28.563-28.563 28.563-74.894 0-103.457l-25.866-25.866c-28.563-28.563-74.894-28.563-103.457 0l-44.94 44.908c-24.915-14.191-51.764-25.245-80.036-32.942v-46.842c0-40.38-32.722-73.141-73.141-73.141h-36.551c-40.38 0-73.18 32.722-73.18 73.141v46.842c-28.233 7.697-55.121 18.79-80.036 32.942l-44.908-44.908c-28.524-28.563-74.855-28.563-103.418 0l-25.898 25.866c-28.563 28.563-28.563 74.894 0 103.457l44.649 44.617c-14.411 25.025-25.646 51.945-33.524 80.366h-48.265c-40.419 0-73.141 32.722-73.141 73.109v36.59c0 40.38 32.722 73.141 73.141 73.141h47.715c7.548 28.123 18.35 54.901 32.36 79.745l-42.935 42.903c-28.563 28.563-28.563 74.894 0 103.457l25.866 25.827c28.563 28.563 74.894 28.563 103.418 0l42.062-42.062c25.756 14.993 53.556 26.668 82.882 34.656v49.177c0.039 40.419 32.832 73.141 73.212 73.141h36.551c40.38 0 73.141-32.722 73.141-73.141v-49.138c29.404-8.027 57.165-19.702 82.882-34.695l42.062 42.062c28.563 28.563 74.894 28.563 103.457 0l25.866-25.827c28.563-28.563 28.563-74.894 0-103.457l-42.903-42.903c14.010-24.844 24.805-51.622 32.392-79.784h47.715c40.38 0 73.141-32.761 73.141-73.141v-36.59c-0.039-40.348-32.761-73.070-73.18-73.070zM511.984 636.58c-111.083 0-201.151-90.068-201.151-201.151s90.068-201.151 201.151-201.151 201.151 90.068 201.151 201.151-90.068 201.151-201.151 201.151zM511.984 346.305c-50.49 0-91.452 40.891-91.452 91.42 0 50.49 40.969 91.42 91.452 91.42s91.42-40.93 91.42-91.42c0-50.522-40.93-91.42-91.42-91.42z" />
<glyph unicode="&#xe919;" glyph-name="alphabetical" d="M684 262.857h260v-68h-364v54l252 366h-250v68h354v-54zM224 368.857h166l-84 222zM272 682.857h70l192-488h-78l-40 104h-218l-40-104h-78zM450 124.857h198l-100-100zM650 752.857h-202l100 100z" />
<glyph unicode="&#xe91a;" glyph-name="profile-updates" horiz-adv-x="1105" d="M1024.086 473.26c-20.376 8.852-41.788 15.705-64 20.319v329.278c0 35.328-28.64 64-64 64h-768c-35.36 0-64-28.672-64-64v-767.752c0-35.328 28.64-64 64-64h192v187.739c0 72.631 47.067 106.013 105.014 106.013h131.544c8.076 0 16.098-0.655 23.921-1.981-14.624-38.314-22.647-79.985-22.647-123.562 0-89.79 34.063-171.51 89.742-232.457h-519.575c-70.688 0-128 57.312-128 128v768c0 70.688 57.312 128 128 128h768c70.688 0 128-57.312 128-128v-349.597zM498.912 348.654c-93.785 0-169.826 77.553-169.826 173.131s76.041 173.072 169.826 173.072c93.785 0 169.826-77.494 169.826-173.072s-76.041-173.131-169.826-173.131zM1048.744 310.271v0l56.172 56.146v-147.136h-147.205l62.602 62.572c-31.847 35.483-78.067 57.812-129.514 57.812-96.081 0-173.97-77.852-173.97-173.888h-40.147c0 118.198 95.863 214.016 214.117 214.016 62.531 0 118.798-26.795 157.944-69.522zM1064.769 165.776h40.147c0-118.198-95.863-214.016-214.117-214.016-62.531 0-118.798 26.795-157.944 69.522l-56.172-56.146v147.136h147.205l-62.601-62.572c31.846-35.483 78.066-57.812 129.513-57.812 96.081 0 173.97 77.852 173.97 173.888z" />
<glyph unicode="&#xe91b;" glyph-name="image" d="M959.884 822.857c0.040-0.034 0.082-0.076 0.116-0.116v-767.77c-0.034-0.040-0.076-0.082-0.116-0.116h-895.77c-0.040 0.034-0.082 0.076-0.114 0.116v767.772c0.034 0.040 0.076 0.082 0.114 0.114h895.77zM960 886.857h-896c-35.2 0-64-28.8-64-64v-768c0-35.2 28.8-64 64-64h896c35.2 0 64 28.8 64 64v768c0 35.2-28.8 64-64 64v0zM832 662.857c0-53.020-42.98-96-96-96s-96 42.98-96 96 42.98 96 96 96 96-42.98 96-96zM896 118.857h-768v128l224 384 256-320h64l224 192z" />
<glyph unicode="&#xe91c;" glyph-name="new-group" horiz-adv-x="1206" d="M194.727 420.883c-94.398-9.922-178.987 58.63-188.908 153.029s58.571 178.98 152.97 188.902c94.398 9.922 178.98-58.571 188.902-152.97s-58.565-179.039-152.963-188.961v0zM293.984 360.244c57.634 9.129 117.662-14.928 128.946-86.171l29.789-188.081c11.283-71.242-36.623-123.721-94.257-132.85l-131.493-20.827c-57.925-9.175-111.91 27.166-123.194 98.409l-29.789 188.081c-11.283 71.242 30.58 111.437 88.505 120.611l131.493 20.827zM769.882 496.006c-78.906 5.517-138.278 75.846-132.602 157.006s74.253 142.491 153.159 136.973c78.906-5.517 138.28-75.795 132.606-156.956s-74.257-142.541-153.163-137.024v0.001zM795.606 431.131l0.001 0.001c48.508-3.392 92.685-34.966 88.372-96.641l-11.385-162.824c-4.313-61.676-53.123-96.36-101.632-92.968l-110.674 7.739c-48.754 3.409-85.702 44.090-81.389 105.765l11.385 162.824c4.312 61.676 45.894 87.252 94.648 83.843l110.674-7.739zM1207.738 927.953l-0.001-0.001c1.962-3.508 2.365-7.143 1.194-10.905l-51.295-166.881c-1.172-3.762-3.549-6.658-7.143-8.669-3.605-2.017-7.304-2.516-11.103-1.499l-56.182 15.054c-3.804 1.019-6.76 3.302-8.866 6.85-2.111 3.539-2.725 7.237-1.852 11.079l39.014 170.172c0.873 3.843 3.035 6.794 6.486 8.848 3.451 2.051 7.077 2.572 10.88 1.553l70.218-18.815c3.806-1.020 6.687-3.285 8.649-6.786zM1129.412 704.808v0.002c3.801-1.018 6.722-3.291 8.757-6.816 2.032-3.525 2.545-7.188 1.525-10.992l-13.17-49.154c-1.019-3.803-3.293-6.724-6.813-8.763-3.526-2.030-7.193-2.538-10.992-1.521l-56.182 15.054c-3.805 1.019-6.721 3.293-8.761 6.813-2.032 3.528-2.541 7.193-1.522 10.996l13.17 49.154c1.019 3.804 3.291 6.722 6.815 8.757 3.525 2.032 7.19 2.542 10.994 1.523l56.177-15.053z" />
<glyph unicode="&#xe91d;" glyph-name="all-albums" d="M942.336 807.548c-5.734 22.528-33.587 40.909-61.952 40.909h-736.768c-28.416 0-56.269-18.381-61.952-40.909l-10.291-61.491h881.203l-10.24 61.491zM993.894 694.857h-963.84c-17.51 0-31.181-15.053-29.542-32.512l47.258-597.453c1.946-20.173 18.944-35.635 39.219-35.635h849.971c20.326 0 37.274 15.462 39.219 35.635l47.258 597.453c1.69 17.459-12.032 32.512-29.542 32.512zM636.826 522.057c26.522 0 48.026-21.504 48.026-48.026s-21.504-48.026-48.026-48.026-48.026 21.555-48.026 48.077c0 26.47 21.504 47.974 48.026 47.974zM281.6 234.057l127.283 292.557 144.742-234.291 124.109 61.645 64.666-119.91h-460.8z" />
<glyph unicode="&#xe91e;" glyph-name="all-images" d="M879.386 606.742l-104.755 288.512c-7.731 21.299-30.464 32.614-50.637 25.19l-696.218-254.106c-20.173-7.373-30.362-30.566-22.579-51.866l110.387-304.179v162.97c0 73.626 58.778 133.478 131.072 133.478h183.962l219.392 154.010 126.925-154.010h102.451zM987.572 513.046h-740.915c-21.504 0-39.014-17.101-39.014-39.782v-482.304c0.051-22.733 17.562-41.114 39.014-41.114h740.915c21.504 0 39.014 18.381 39.014 41.114v482.304c0 22.682-17.51 39.782-39.014 39.782zM924.186 52.246h-614.4v102.4l101.581 205.722 141.722-175.923 133.018 136.294 170.906 61.696 67.174-176.589v-153.6z" />
<glyph unicode="&#xe91f;" glyph-name="all-media" d="M370.67 862.857h-212c-39.083 0-70.67-31.587-70.67-70.67v-212c0-39.007 31.587-70.67 70.67-70.67h212c39.083 0 70.67 31.663 70.67 70.67v212c0 39.007-31.587 70.67-70.67 70.67zM865.33 862.857h-212c-39.083 0-70.67-31.587-70.67-70.67v-212c0-39.007 31.587-70.67 70.67-70.67h212c39.083 0 70.67 31.663 70.67 70.67v212c0 39.007-31.587 70.67-70.67 70.67zM370.67 368.187h-212c-39.083 0-70.67-31.587-70.67-70.67v-212c0-39.007 31.587-70.67 70.67-70.67h212c39.083 0 70.67 31.663 70.67 70.67v212c0 39.007-31.587 70.67-70.67 70.67zM865.33 368.187h-212c-39.083 0-70.67-31.587-70.67-70.67v-212c0-39.007 31.587-70.67 70.67-70.67h212c39.083 0 70.67 31.663 70.67 70.67v212c0 39.007-31.587 70.67-70.67 70.67z" />
<glyph unicode="&#xe920;" glyph-name="marker" d="M512 949.995c211.642 0 383.234-171.593 383.234-383.234 0-158.085-320.511-639.041-383.234-638.723-63.713-0.32-383.234 478.499-383.234 638.723 0 211.641 171.593 383.234 383.234 383.234zM512 470.953c52.918 0 95.808 42.89 95.808 95.808s-42.89 95.808-95.808 95.808c-52.918 0-95.808-42.89-95.808-95.808s42.89-95.808 95.808-95.808zM512 726.442c-88.176 0-159.681-71.505-159.681-159.681s71.505-159.681 159.681-159.681c88.176 0 159.681 71.505 159.681 159.681s-71.505 159.681-159.681 159.681z" />
<glyph unicode="&#xe921;" glyph-name="paperclip" d="M985.382 581.305l-520.411-514.633c-86.229-85.279-226.046-85.279-312.275 0s-86.229 223.523 0 308.802l468.395 463.165c57.498 56.841 150.673 56.841 208.173 0 57.498-56.84 57.498-149.028 0-205.868l-468.397-463.167c-28.731-28.44-75.337-28.44-104.104 0-28.731 28.401-28.731 74.494 0 102.934l416.344 411.701-52.053 51.466-416.305-411.736c-57.498-56.841-57.498-149.028 0-205.868s150.673-56.841 208.171 0l468.397 463.167c86.229 85.278 86.229 223.523 0 308.802s-226.046 85.278-312.275 0l-494.423-488.899 1.792-1.79c-89.812-114.192-81.917-279.269 24.235-384.212 106.151-104.945 273.017-112.803 388.524-23.942l1.792-1.792 546.438 540.367-52.016 51.503z" />
<glyph unicode="&#xe922;" glyph-name="planet" d="M512 950.857c-282.785 0-512-229.215-512-512 0-282.751 229.215-512 512-512s512 229.215 512 512-229.215 512-512 512zM883.071 689.384c42.881-63.167 69.983-137.857 75.712-218.527h-256.159c-1.6 59.487-6.591 117.599-16.064 173.056 69.344 9.855 135.232 25.088 196.511 45.471zM839.007 744.585c-52.256-16.513-107.425-29.12-164.928-37.6-13.439 58.624-30.849 114.271-52.16 165.727 84.416-21.342 159.329-66.59 217.088-128.127zM385.504 470.857c1.697 56.352 6.817 111.777 16.479 165.023 35.969-3.167 72.64-5.023 110.016-5.023s74.048 1.856 110.048 5.023c9.633-53.248 14.753-108.671 16.449-165.023h-252.993zM638.497 406.857c-1.697-56.352-6.817-111.777-16.481-165.025-35.969 3.169-72.64 5.025-110.016 5.025s-74.048-1.856-110.048-5.025c-9.631 53.248-14.751 108.705-16.448 165.025h252.993zM480.929 885.289c10.304 0.703 20.575 1.568 31.071 1.568s20.768-0.865 31.071-1.568c27.265-56.737 49.279-119.808 65.633-186.785-31.839-2.752-64.064-4.447-96.704-4.447s-64.865 1.665-96.704 4.447c16.352 66.977 38.4 130.080 65.633 186.785zM402.112 872.713c-21.312-51.456-38.751-107.105-52.16-165.727-57.536 8.48-112.704 21.087-164.959 37.6 57.759 61.535 132.672 106.784 217.12 128.127zM140.929 689.384c61.281-20.385 127.168-35.648 196.513-45.471-9.44-55.457-14.465-113.569-16.064-173.056h-256.161c5.727 80.672 32.832 155.36 75.712 218.527zM140.929 188.33c-42.879 63.168-69.985 137.857-75.712 218.527h256.161c1.601-59.489 6.592-117.599 16.064-173.056-69.346-9.825-135.233-25.088-196.513-45.471zM184.993 133.161c52.256 16.511 107.425 29.12 164.928 37.568 13.441-58.624 30.849-114.273 52.16-165.729-84.416 21.345-159.329 66.624-217.088 128.161zM543.071-7.574c-10.304-0.704-20.575-1.569-31.071-1.569s-20.768 0.865-31.071 1.569c-27.231 56.703-49.281 119.808-65.633 186.783 31.839 2.784 64.065 4.449 96.704 4.449 32.641 0 64.865-1.665 96.704-4.449-16.354-66.943-38.4-130.048-65.633-186.783zM621.888 5.001c21.312 51.456 38.753 107.105 52.16 165.729 57.536-8.48 112.704-21.089 164.928-37.568-57.727-61.537-132.64-106.816-217.088-128.161zM883.071 188.33c-61.279 20.385-127.168 35.648-196.511 45.473 9.44 55.457 14.465 113.567 16.064 173.056h256.161c-5.729-80.673-32.833-155.362-75.714-218.529z" />
<glyph unicode="&#xe923;" glyph-name="sun" d="M128 470.857h-96c-17.664 0-32-14.336-32-32s14.336-32 32-32h96c17.664 0 32 14.336 32 32s-14.336 32-32 32zM512 790.857c17.664 0 32 14.336 32 32v96c0 17.664-14.336 32-32 32s-32-14.336-32-32v-96c0-17.664 14.336-32 32-32zM819.873 701.898l67.233 67.233c12.383 12.383 12.383 32.448 0 44.832s-32.45 12.383-44.833 0l-67.233-67.233c-12.383-12.383-12.383-32.448 0-44.832 12.385-12.385 32.45-12.385 44.833 0v0zM237.12 208.777l-67.233-67.233c-12.383-12.383-12.383-32.448 0-44.832s32.448-12.383 44.832 0l67.233 67.233c12.383 12.383 12.383 32.448 0 44.832s-32.447 12.385-44.832 0zM217.856 687.753c12.512-12.512 32.768-12.512 45.247 0s12.48 32.768 0 45.247l-67.87 67.905c-12.512 12.512-32.768 12.512-45.248 0-12.512-12.512-12.512-32.768 0-45.248l67.871-67.904zM512 86.857c-17.664 0-32-14.336-32-32v-96c0-17.664 14.336-32 32-32s32 14.336 32 32v96c0 17.664-14.336 32-32 32zM806.144 189.961c-12.512 12.512-32.768 12.512-45.248 0-12.512-12.514-12.512-32.768 0-45.248l67.872-67.872c12.512-12.512 32.768-12.512 45.248 0 12.48 12.514 12.512 32.768 0 45.248l-67.872 67.872zM992 470.857h-96c-17.664 0-32-14.336-32-32s14.336-32 32-32h96c17.664 0 32 14.336 32 32s-14.336 32-32 32zM512 727.049c-159.168 0-288.192-129.024-288.192-288.192s129.024-288.192 288.192-288.192c159.168 0 288.192 129.024 288.192 288.192s-129.024 288.192-288.192 288.192z" />
<glyph unicode="&#xe924;" glyph-name="new-people" horiz-adv-x="688" d="M197.868 440.915c-103.557 0-187.521 83.172-187.521 185.676s83.964 185.612 187.521 185.612c103.557 0 187.521-83.109 187.521-185.612s-83.964-185.676-187.521-185.676zM261.064 371.982v0c63.664 0 124.243-35.799 124.243-113.694v-205.642c0-77.895-60.579-125.776-124.243-125.776h-145.25c-63.984 0-115.956 47.882-115.956 125.776v205.642c0 77.894 51.971 113.694 115.956 113.694h145.25zM685.572 921.91c-2.133 3.806-5.264 6.267-9.401 7.376l-76.321 20.45c-4.134 1.108-8.075 0.541-11.826-1.688-3.751-2.233-6.101-5.44-7.050-9.617l-42.405-184.962c-0.949-4.176-0.281-8.195 2.013-12.042 2.29-3.856 5.502-6.337 9.637-7.445l61.065-16.362c4.129-1.106 8.15-0.563 12.068 1.629 3.907 2.185 6.49 5.333 7.764 9.422l55.753 181.385c1.273 4.089 0.834 8.040-1.298 11.853zM601.052 679.459l-61.060 16.361c-4.135 1.108-8.119 0.554-11.95-1.655-3.83-2.212-6.299-5.383-7.407-9.518l-14.315-53.426c-1.108-4.134-0.555-8.117 1.654-11.952 2.217-3.826 5.386-6.297 9.522-7.405l61.065-16.362c4.129-1.106 8.114-0.553 11.947 1.653 3.826 2.217 6.297 5.391 7.405 9.525l14.315 53.426c1.108 4.134 0.551 8.116-1.658 11.947-2.212 3.831-5.387 6.301-9.518 7.408z" />
<glyph unicode="&#xe925;" glyph-name="profile-avatar" d="M669.077-8.895h226.923c35.36 0 64 28.672 64 64v767.752c0 35.328-28.64 64-64 64h-768c-35.36 0-64-28.672-64-64v-767.752c0-35.328 28.64-64 64-64h192v187.739c0 72.631 47.067 106.013 105.014 106.013h131.544c57.656 0 112.519-33.381 112.519-106.013v-187.739zM896 950.857c70.688 0 128-57.312 128-128v-768c0-70.688-57.312-128-128-128h-768c-70.688 0-128 57.312-128 128v768c0 70.688 57.312 128 128 128h768zM498.826 348.654c-93.785 0-169.826 77.553-169.826 173.131s76.041 173.072 169.826 173.072c93.785 0 169.826-77.494 169.826-173.072s-76.041-173.131-169.826-173.131z" />
<glyph unicode="&#xe926;" glyph-name="all-music" d="M960 950.857h64v-736c0-88.366-100.29-160-224-160s-224 71.634-224 160c0 88.368 100.29 160 224 160 62.684 0 119.342-18.4 160-48.040v368.040l-512-113.778v-494.222c0-88.366-100.288-160-224-160s-224 71.634-224 160c0 88.368 100.288 160 224 160 62.684 0 119.342-18.4 160-48.040v624.040l576 128z" />
<glyph unicode="&#xe927;" glyph-name="cropping" d="M832 694.857l192 192-64 64-192-192h-448v192h-128v-192h-192v-128h192v-512h512v-192h128v192h192v128h-192v448zM320 630.857h320l-320-320v320zM384 246.857l320 320v-320h-320z" />
<glyph unicode="&#xe928;" glyph-name="refresh" d="M812.967 714.324c-74.589 81.455-181.809 132.533-300.967 132.533-225.336 0-408-182.664-408-408h76.5c0 183.080 148.42 331.5 331.5 331.5 98.034 0 186.105-42.563 246.789-110.213l-119.289-119.287h280.5v280.5l-107.033-107.033zM843.5 438.857c0-183.080-148.42-331.5-331.5-331.5-98.034 0-186.105 42.563-246.787 110.213l119.287 119.287h-280.5v-280.5l107.033 107.033c74.589-81.455 181.809-132.533 300.967-132.533 225.336 0 408 182.664 408 408h-76.5z" />
<glyph unicode="&#xe929;" glyph-name="macaroon" d="M511.998 788.916c123.030 0 222.766-99.735 222.766-222.766s-99.735-222.766-222.766-222.766c-123.030 0-222.766 99.735-222.766 222.766s99.735 222.766 222.766 222.766zM511.998 407.033c87.864 0 159.118 71.253 159.118 159.118s-71.253 159.118-159.118 159.118c-87.864 0-159.118-71.253-159.118-159.118s71.253-159.118 159.118-159.118zM862.725 393.19c25.555 51.236 40.321 108.646 40.321 169.586 0 212.774-175.094 385.257-391.047 385.257-215.987 0-391.047-172.485-391.047-385.255 0-60.942 14.766-118.351 40.321-169.586l-158.735-270.851c0 0 100.657-20.176 202.779-41.212 68.103-75.803 135.886-151.449 135.886-151.449l145.943 249.051c8.275-0.509 16.453-1.241 24.854-1.241s16.612 0.731 24.854 1.241l145.943-249.051c0 0 67.785 75.613 135.855 151.415 102.12 21.036 202.811 41.212 202.811 41.212l-158.738 270.883zM333.627 45.201c0 0-48.881 46.334-94.834 91.016-65.174 18.554-130.954 37.426-130.954 37.426l92.257 157.431c53.209-69.406 129.554-120.357 217.895-141.868l-84.364-144.004zM785.169 136.216c-45.953-44.648-94.834-91.016-94.834-91.016l-84.365 143.97c88.343 21.514 164.687 72.462 217.895 141.87l92.257-157.432c0 0.032-65.777-18.84-130.954-37.392l0.001-0.001z" />
<glyph unicode="&#xe92a;" glyph-name="forum" d="M876.992 658.227c0.606-9.175 1.626-18.255 1.626-27.558 0-20.332-1.945-40.249-4.814-59.91 42.911-50.383 68.574-112.433 68.574-179.856 0-106.552-63.503-200.157-159.399-254.343v-113.298l-108.807 72.729c-26.491-5.53-54.004-8.791-82.472-8.791-82.568 0-126.435 24.872-186.369 66.239-17.374-1.408-34.94-2.303-52.729-2.303-12.688 0-25.122 0.928-37.619 1.63 75.874-74.423 153.948-121.513 276.718-121.513 26.111 0 51.581 2.366 76.353 6.427l178.686-110.325v181.328c96.883 66.559 159.401 169.881 159.401 286.249 0 103.706-49.734 197.023-129.147 263.294v0.002zM325.055 223.485h-0.001l-179.675-104.314v181.294c-83.302 71.131-127.52 169.915-127.52 286.249 0 200.826 185.224 363.644 414.44 363.644 190.547 0 382.561-162.816 382.561-363.644s-153.661-371.637-382.561-371.637c-26.11 0-82.442 4.379-107.244 8.408zM416.361 534.763c26.396 0 47.82 21.451 47.82 47.953 0 26.469-21.424 47.953-47.82 47.953-26.398 0-47.82-21.484-47.82-47.953-0.002-26.5 21.422-47.953 47.82-47.953zM607.639 534.763c26.398 0 47.82 21.451 47.82 47.953 0 26.469-21.424 47.953-47.82 47.953s-47.819-21.484-47.819-47.953c-0.002-26.5 21.422-47.953 47.819-47.953zM225.081 534.763c26.396 0 47.82 21.451 47.82 47.953 0 26.469-21.424 47.953-47.82 47.953-26.398 0-47.82-21.484-47.82-47.953 0-26.5 21.422-47.953 47.82-47.953z" />
<glyph unicode="&#xe92b;" glyph-name="edit" d="M838.072 913.141c81.849 0 148.216-66.363 148.216-148.216 0-33.359-11.036-64.16-29.644-88.928l-59.284-59.284-207.5 207.5 59.284 59.284c24.768 18.608 55.567 29.644 88.928 29.644zM97 231.357l-59.284-266.784 266.784 59.284 548.394 548.394-207.5 207.5-548.394-548.394zM700.579 576.35l-415-415-51.086 51.086 415 415 51.086-51.086z" />
<glyph unicode="&#xe92c;" glyph-name="swap" d="M145.675 524.194h494.326c23.564 0 42.666 19.102 42.666 42.666s-19.102 42.666-42.666 42.666h-494.326l97.83 97.83c16.662 16.662 16.662 43.678 0 60.34s-43.678 16.662-60.34 0l-170.668-170.666c-0.994-0.994-1.934-2.040-2.826-3.128-0.404-0.492-0.756-1.012-1.134-1.518-0.456-0.608-0.926-1.202-1.35-1.836-0.406-0.606-0.758-1.236-1.13-1.858-0.342-0.572-0.702-1.132-1.018-1.722-0.34-0.634-0.628-1.288-0.932-1.936-0.29-0.614-0.596-1.218-0.858-1.848-0.26-0.63-0.472-1.274-0.7-1.914-0.242-0.674-0.5-1.338-0.708-2.026-0.194-0.64-0.336-1.29-0.498-1.938-0.178-0.702-0.374-1.396-0.516-2.112-0.148-0.75-0.236-1.506-0.344-2.26-0.088-0.622-0.208-1.236-0.27-1.866-0.276-2.8-0.276-5.622 0-8.422 0.062-0.63 0.18-1.242 0.27-1.866 0.108-0.754 0.196-1.512 0.346-2.26 0.142-0.716 0.338-1.408 0.516-2.11 0.162-0.648 0.304-1.298 0.498-1.938 0.208-0.688 0.466-1.354 0.708-2.026 0.23-0.64 0.44-1.284 0.7-1.914s0.568-1.232 0.858-1.846c0.306-0.648 0.594-1.302 0.934-1.938 0.316-0.588 0.674-1.146 1.016-1.718 0.372-0.624 0.724-1.254 1.13-1.862 0.422-0.632 0.892-1.224 1.346-1.832 0.38-0.508 0.732-1.028 1.138-1.522 0.886-1.080 1.82-2.118 2.806-3.104 0.008-0.008 0.012-0.016 0.020-0.022l170.666-170.666c16.662-16.662 43.678-16.662 60.34 0s16.662 43.678 0 60.34l-97.83 97.832zM1014.329 283.816c0.408 0.496 0.76 1.018 1.142 1.528 0.452 0.604 0.922 1.196 1.342 1.826 0.408 0.608 0.76 1.24 1.132 1.864 0.34 0.57 0.698 1.128 1.012 1.714 0.34 0.636 0.63 1.292 0.936 1.942 0.29 0.612 0.594 1.214 0.856 1.842 0.26 0.63 0.472 1.274 0.7 1.914 0.242 0.674 0.5 1.338 0.708 2.026 0.194 0.64 0.336 1.292 0.498 1.938 0.178 0.702 0.374 1.396 0.516 2.11 0.148 0.75 0.236 1.506 0.346 2.26 0.088 0.622 0.208 1.234 0.27 1.866 0.276 2.8 0.276 5.622 0 8.422-0.062 0.63-0.18 1.242-0.27 1.866-0.108 0.754-0.196 1.512-0.346 2.26-0.142 0.716-0.338 1.408-0.516 2.11-0.162 0.648-0.304 1.298-0.498 1.938-0.208 0.688-0.466 1.354-0.708 2.026-0.23 0.64-0.44 1.284-0.7 1.914-0.26 0.628-0.566 1.23-0.856 1.842-0.306 0.65-0.594 1.306-0.936 1.942-0.314 0.586-0.672 1.144-1.012 1.714-0.372 0.624-0.726 1.256-1.132 1.864-0.422 0.63-0.89 1.222-1.342 1.826-0.382 0.51-0.736 1.032-1.142 1.528-0.878 1.070-1.806 2.1-2.784 3.080-0.014 0.016-0.028 0.032-0.042 0.046l-170.666 170.666c-16.662 16.662-43.678 16.662-60.34 0s-16.662-43.678 0-60.34l97.83-97.83h-494.326c-23.564 0-42.666-19.102-42.666-42.666s19.102-42.666 42.666-42.666h494.326l-97.83-97.83c-16.662-16.662-16.662-43.678 0-60.34s43.678-16.662 60.34 0l170.666 170.666c0.016 0.016 0.028 0.032 0.042 0.046 0.978 0.986 1.906 2.016 2.784 3.086z" />
<glyph unicode="&#xe92d;" glyph-name="trash" horiz-adv-x="805" d="M292.787 164.57v402.286c0 10.286-8 18.286-18.286 18.286h-36.571c-10.286 0-18.286-8-18.286-18.286v-402.286c0-10.286 8-18.286 18.286-18.286h36.571c10.286 0 18.286 8 18.286 18.286zM439.073 164.57v402.286c0 10.286-8 18.286-18.286 18.286h-36.571c-10.286 0-18.286-8-18.286-18.286v-402.286c0-10.286 8-18.286 18.286-18.286h36.571c10.286 0 18.286 8 18.286 18.286zM585.359 164.57v402.286c0 10.286-8 18.286-18.286 18.286h-36.571c-10.286 0-18.286-8-18.286-18.286v-402.286c0-10.286 8-18.286 18.286-18.286h36.571c10.286 0 18.286 8 18.286 18.286zM274.502 731.427h256l-27.429 66.857c-1.714 2.286-6.857 5.714-9.714 6.286h-181.143c-3.429-0.571-8-4-9.714-6.286zM804.787 713.142v-36.571c0-10.286-8-18.286-18.286-18.286h-54.857v-541.714c0-62.857-41.143-116.571-91.429-116.571h-475.429c-50.286 0-91.429 51.429-91.429 114.286v544h-54.857c-10.286 0-18.286 8-18.286 18.286v36.571c0 10.286 8 18.286 18.286 18.286h176.571l40 95.429c11.429 28 45.714 50.857 76 50.857h182.857c30.286 0 64.571-22.857 76-50.857l40-95.429h176.571c10.286 0 18.286-8 18.286-18.286z" />
<glyph unicode="&#xe92e;" glyph-name="fire" d="M322.944-73.143c-68.246 142.008-31.902 223.378 20.55 300.044 57.44 83.956 72.244 167.066 72.244 167.066s45.154-58.7 27.092-150.508c79.772 88.8 94.824 230.28 82.782 284.464 180.314-126.012 257.376-398.856 153.522-601.066 552.372 312.532 137.398 780.172 65.154 832.85 24.082-52.676 28.648-141.85-20-185.126-82.352 312.276-285.972 376.276-285.972 376.276 24.082-161.044-87.296-337.144-194.696-468.73-3.774 64.216-7.782 108.528-41.55 169.98-7.58-116.656-96.732-211.748-120.874-328.628-32.702-158.286 24.496-274.18 241.748-396.622z" />
<glyph unicode="&#xe92f;" glyph-name="all-members" d="M221.162 505.769c-102.603-10.784-194.543 63.726-205.327 166.329s63.662 194.536 166.265 205.32c102.603 10.784 194.536-63.662 205.32-166.265s-63.655-194.6-166.258-205.384zM329.045 439.859l-142.922-22.637c-62.959-9.972-108.461-53.66-96.197-131.094l32.378-204.428c12.264-77.435 70.942-116.934 133.901-106.962l142.922 22.637c62.643 9.922 114.713 66.962 102.449 144.396l-32.378 204.428c-12.264 77.435-77.51 103.582-140.153 93.66zM846.306 587.421c-85.764 5.997-150.296 82.438-144.127 170.652s80.707 154.875 166.471 148.878c85.764-5.997 150.299-82.383 144.131-170.598s-80.711-154.93-166.475-148.933zM874.265 516.907l-120.293 8.412c-52.991 3.705-98.187-24.094-102.874-91.13l-12.375-176.976c-4.688-67.036 35.472-111.253 88.463-114.958l120.293-8.412c52.725-3.687 105.777 34.012 110.465 101.048l12.375 176.976c4.688 67.036-43.329 101.354-96.053 105.041z" />
<glyph unicode="&#xe930;" glyph-name="at" d="M858.906 800.461c-88.182 81.277-197.866 121.916-328.856 121.916-137.698 0-255.076-46.162-351.938-138.684s-145.391-207.533-145.391-345.23c0-131.977 46.162-245.409 138.289-340.496 92.522-95.086 216.805-142.629 373.243-142.629 94.297 0 186.819 19.333 277.565 58.196 29.591 12.626 43.992 46.557 31.958 76.345v0c-12.428 30.775-47.543 44.979-78.121 31.958-78.91-33.931-156.241-50.897-231.6-50.897-119.943 0-212.859 36.496-278.749 109.685-65.692 72.992-98.637 158.806-98.637 257.246 0 106.923 35.312 196.091 105.739 267.701 70.23 71.413 156.833 107.317 259.416 107.317 94.494 0 174.391-29.394 239.491-88.182s97.651-132.766 97.651-221.934c0-60.958-14.993-111.855-44.781-152.296-29.788-40.639-60.761-60.761-92.916-60.761-17.36 0-26.040 9.272-26.040 28.013 0 15.19 1.184 32.945 3.354 53.461l36.693 300.054h-126.256l-8.088-29.394c-32.156 26.237-67.468 39.455-105.739 39.455-60.761 0-112.841-24.265-156.044-72.597-43.4-48.332-64.903-110.671-64.903-186.819 0-74.372 19.136-134.541 57.604-180.112 38.469-45.768 84.631-68.454 138.684-68.454 48.332 0 89.563 20.319 123.888 60.761 25.843-38.863 63.917-58.196 114.222-58.196 73.978 0 137.895 32.156 191.751 96.664 53.856 64.311 80.883 142.038 80.883 232.981 0 115.208-43.992 213.648-132.371 294.925zM568.124 346.533c-22.292-29.986-48.924-45.176-79.896-45.176-21.108 0-38.074 11.047-50.897 33.142-13.020 22.095-19.53 49.516-19.53 82.461 0 40.639 9.075 73.386 27.224 98.243s40.639 37.482 67.468 37.482c23.278 0 43.992-9.272 62.141-28.013s27.224-43.598 27.224-74.767c-0.197-38.863-11.442-73.189-33.734-103.372z" />
<glyph unicode="&#xe931;" glyph-name="cart" horiz-adv-x="1122" d="M833.665 570.044l-226.363 339.544c-10.291 10.289-25.723 20.578-41.157 20.578s-30.868-5.145-41.157-20.578l-226.363-339.544h-246.941c-30.868 0-51.446-20.578-51.446-51.446v-15.434l128.615-478.448c10.289-41.157 51.446-77.169 97.747-77.169h668.799c46.301 0 87.458 30.868 97.747 77.169l128.615 478.448v15.434c0 30.868-20.578 51.446-51.446 51.446h-236.652zM411.807 570.044l154.338 226.363 154.338-226.363h-308.676zM566.146 158.475c-56.591 0-102.892 46.301-102.892 102.892s46.301 102.892 102.892 102.892c56.591 0 102.892-46.301 102.892-102.892s-46.301-102.892-102.892-102.892z" />
<glyph unicode="&#xe932;" glyph-name="chat-off" d="M672 406.857h-320c-17.664 0-32-14.336-32-32s14.336-32 32-32h320c17.664 0 32 14.336 32 32s-14.336 32-32 32zM736 598.857h-448c-17.664 0-32-14.336-32-32s14.336-32 32-32h448c17.664 0 32 14.336 32 32s-14.336 32-32 32zM512 950.857c-282.751 0-512-200.575-512-448 0-141.409 75.040-267.296 192-349.408v-226.592l224.288 136.097c31.041-5.122 62.976-8.097 95.712-8.097 282.785 0 512 200.575 512 448s-229.215 448-512 448zM512 118.857c-37.376 0-73.472 4.352-108.161 11.744l-150.657-90.559 2.016 148.415c-115.486 69.471-191.199 184.287-191.199 314.4 0 212.063 200.575 384 448 384s448-171.937 448-384-200.575-384-448-384z" />
<glyph unicode="&#xe933;" glyph-name="chat-on" d="M512 950.857c282.785 0 512-200.575 512-448s-229.215-448-512-448c-32.736 0-64.671 2.975-95.712 8.097l-224.288-136.097v226.592c-116.96 82.112-192 207.999-192 349.408 0 247.425 229.249 448 512 448zM736 598.857h-448c-17.664 0-32-14.336-32-32s14.336-32 32-32h448c17.664 0 32 14.336 32 32s-14.336 32-32 32zM672 406.857h-320c-17.664 0-32-14.336-32-32s14.336-32 32-32h320c17.664 0 32 14.336 32 32s-14.336 32-32 32z" />
<glyph unicode="&#xe934;" glyph-name="filter" horiz-adv-x="1536" d="M618.669-9.143h298.669v149.331h-298.669v-149.331zM96 886.857v-149.331h1344v149.331h-1344zM320 364.188h896v149.331h-896v-149.331z" />
<glyph unicode="&#xe935;" glyph-name="my-groups" horiz-adv-x="1180" d="M594.096 672.861c-75.043 0-135.877 60.834-135.877 135.877s60.834 135.877 135.877 135.877c75.043 0 135.877-60.834 135.877-135.877s-60.834-135.877-135.877-135.877zM1069.742 434.912c55.678-11.635 91.783-66.816 80.199-122.645l-31.859-151.957c-11.536-55.678-66.765-91.732-122.395-80.148l-40.749 8.54c-63.019-91.735-199.845-155.603-358.694-155.603-103.817 0-201.644 26.766-275.699 75.305-35.554 23.27-63.32 50.486-83.394 80.148l-40.098-8.39c-55.681-11.635-110.91 24.47-122.445 80.148l-31.811 151.957c-11.635 55.829 24.47 111.009 80.099 122.645l126.74 26.417c43.196 9.038 85.843-10.885 108.363-46.191 22.023 11.286 45.293 20.974 70.061 28.864v75.703c0 56.977 46.441 103.569 103.518 103.569h129.485c56.776 0 103.418-46.592 103.367-103.569v-75.305c25.018-8.040 48.539-17.728 70.411-28.963 22.52 35.156 65.117 54.931 108.261 45.893l126.638-26.417zM1042.177 494.237c-75.043 0-135.877 60.834-135.877 135.877s60.834 135.877 135.877 135.877c75.043 0 135.877-60.834 135.877-135.877s-60.834-135.877-135.877-135.877zM178.174 497.084c-73.506-15.332-145.515 31.76-160.847 105.266-15.381 73.458 31.76 145.466 105.166 160.796 73.557 15.381 145.466-31.76 160.946-105.166 15.182-73.458-31.76-145.515-105.266-160.895zM596.193-15.017c131.483 0 245.889 46.74 303.713 115.204l-31.010 6.491c-55.729 11.584-91.783 66.765-80.247 122.494l28.914 138.176c-16.481 8.788-34.258 16.529-53.183 23.27v-26.217c0-56.829-46.541-103.469-103.37-103.469h-129.485c-56.977 0-103.518 46.592-103.518 103.469v24.919c-18.576-6.69-36.054-14.531-52.683-23.47l28.514-136.627c11.635-55.729-24.47-110.91-80.199-122.494l-30.711-6.443c14.929-17.478 33.556-33.806 56.028-48.488 65.566-43.196 153.455-66.816 247.236-66.816z" />
<glyph unicode="&#xe937;" glyph-name="last-active" d="M727.040 653.897c-56.32 61.44-138.24 92.16-215.040 92.16v-307.2l-215.040-215.040c117.76-117.76 312.32-117.76 435.2 0 117.76 117.76 117.76 312.32-5.12 430.080zM512 950.857c-281.6 0-512-230.4-512-512s230.4-512 512-512c281.6 0 512 230.4 512 512s-230.4 512-512 512zM512 29.257c-225.28 0-409.6 184.32-409.6 409.6s184.32 409.6 409.6 409.6c225.28 0 409.6-184.32 409.6-409.6s-184.32-409.6-409.6-409.6z" />
<glyph unicode="&#xe938;" glyph-name="love-off" horiz-adv-x="1195" d="M1034.182 764.199c169.729-220.398-15.925-564.773-421.638-748.479-9.555-4.327-20.51-4.327-30.066 0-405.728 183.703-591.389 528.078-421.656 748.48 120.775 156.789 348.274 125.282 436.696-7.935 88.419 133.213 315.901 164.719 436.662 7.934zM976.431 719.722c-110.241 143.128-342.468 70.096-342.468-85.787 0-48.595-72.891-48.595-72.891 0 0 155.887-232.247 228.921-342.503 85.787-132.577-172.154 20.894-462.547 378.941-630.669 358.031 168.121 511.496 458.515 378.921 630.669z" />
<glyph unicode="&#xe939;" glyph-name="love-on" horiz-adv-x="1178" d="M1033.148 760.102c-149.637 194.276-444.127 79.641-444.127-117.651 0 197.292-294.51 311.935-444.168 117.651-154.676-200.85-2.223-552.689 444.159-754.798 446.36 202.11 598.814 553.948 444.138 754.798z" />
<glyph unicode="&#xe93a;" glyph-name="love-request" horiz-adv-x="1517" d="M1330.872 364.323c8.976-8.937 8.976-23.515 0-32.413l-243.699-218.833c-4.369-4.449-10.249-6.754-16.207-6.754-2.979 0-5.997 0.597-8.859 1.749-8.54 3.615-13.626 11.956-13.626 21.212v120.122c-16.644 0-32.335-0.199-47.549-0.555-2.503-0.078-5.084-0.16-7.547-0.238-14.697-0.476-28.879-1.113-42.306-2.186-0.358-0.039-0.794-0.039-1.191-0.078-114.203-9.215-183.639-45.204-236.191-174.979l-26.494-13.068c25.463 322.35 215.297 388.527 361.279 388.527v118.255c0 9.335 5.084 17.677 13.626 21.173 2.819 1.191 5.799 1.749 8.738 1.749 5.997 0 11.956-2.343 16.327-6.754l243.699-216.927zM969.021 520.050c-139.983-22.246-338.439-116.388-361.954-466.385-377.525 185.823-504.401 491.37-368.111 668.336 135.93 176.527 403.543 72.334 403.543-106.894 0 179.228 267.573 283.382 403.464 106.894 13.228-17.159 23.159-35.829 31.382-55.175-2.186 0.119-4.33 0.597-6.515 0.597-13.505 0-26.733-2.581-39.246-7.785-37.895-15.611-62.563-52.792-62.563-94.541v-45.047z" />
<glyph unicode="&#xe93b;" glyph-name="people" horiz-adv-x="454" d="M233.064 521.389c-119.738 0-216.821 96.168-216.821 214.688s97.083 214.614 216.821 214.614c119.738 0 216.821-96.095 216.821-214.614s-97.083-214.688-216.821-214.688zM306.135 441.685h-167.945c-73.982 0-134.074-41.394-134.074-131.459v-237.774c0-90.066 60.092-145.429 134.074-145.429h167.945c73.611 0 143.656 55.363 143.656 145.429v237.774c0 90.066-70.045 131.459-143.656 131.459z" />
<glyph unicode="&#xe93c;" glyph-name="pinned-off" d="M552.555 787.475c-15.442 32.367-9.762 72.296 17.042 99.096l2.529 2.529c34.013 34.008 89.16 34.008 123.165-0.001l270.079-270.076c34.007-34.017 34.003-89.155-0.020-123.178l-2.512-2.509c-26.8-26.811-66.73-32.495-99.092-17.056l-157.967-187.841c19.195-35.035 5.679-82.6-29.957-118.239l-15.642-15.642c-9.938-9.93-23.262-15.333-37.032-15.333-13.775 0-27.103 5.404-37.041 15.342l-111.566 111.566-332.592-295.64c-11.635-10.343-26.496-15.887-41.781-15.887-16.54 0-32.531 6.488-44.44 18.385l-6.402 6.39c-23.575 23.544-24.703 61.394-2.566 86.292l295.643 332.607-111.554 111.551c-9.833 9.825-15.351 23.156-15.351 37.050 0 13.896 5.518 27.225 15.342 37.041l15.631 15.631c23.859 23.859 53.989 38.548 82.471 38.548 12.838 0 24.997-2.946 35.669-8.677l187.943 158.053zM477.126 354.058l146.023-146.023 7.418 7.418c19.456 19.458 23.24 38.436 17.784 43.893l-27.523 27.511 235.621 280.181 28.484-28.461c9.013-9.014 23.629-9.013 32.66 0.022l2.517 2.514c9.018 9.018 9.019 23.638 0.003 32.657l-270.077 270.074c-9.014 9.015-23.638 9.015-32.655-0.002l-2.529-2.529c-9.016-9.015-9.016-23.638 0.002-32.655l28.473-28.473-280.195-235.633-27.512 27.525c-1.267 1.267-3.209 2.022-6.675 2.022-9.923 0-24.538-7.125-37.216-19.803l-7.416-7.416 146.020-146.016-335.043-376.933 4.922-4.913 376.917 335.040z" />
<glyph unicode="&#xe93d;" glyph-name="pinned-on" d="M981.312 627.467l-294.28 294.276c-23.437 23.441-61.449 23.441-84.893 0l-2.753-2.753c-23.444-23.441-23.441-61.453 0-84.893l4.146-4.146-251.727-211.692-7.366 7.369c-8.121 8.121-19.159 12.416-31.928 12.416-20.922 0-45.3-11.883-65.207-31.79l-17.033-17.033c-4.167-4.164-6.504-9.813-6.504-15.704 0-5.888 2.337-11.54 6.504-15.704l144.807-144.803-343.975-386.984c-11.85-13.328-11.245-33.588 1.375-46.19l6.967-6.956c6.547-6.54 15.159-9.845 23.79-9.845 7.975 0 15.968 2.821 22.361 8.502l386.966 343.971 144.81-144.81c4.335-4.335 10.019-6.504 15.704-6.504 5.681 0 11.366 2.169 15.704 6.504l17.034 17.034c33.207 33.211 41.535 74.973 19.37 97.141l-7.362 7.359 211.688 251.723 4.146-4.143c23.437-23.441 61.445-23.441 84.882 0.007l2.757 2.753c23.441 23.441 23.444 61.445 0.007 84.89z" />
<glyph unicode="&#xe93e;" glyph-name="plus" d="M857.715 501.72h-267.139c-9.429 0-15.723 6.293-15.723 15.723v267.139c0 18.86-12.563 31.42-31.42 31.42h-62.863c-18.86 0-31.42-12.563-31.42-31.42v-267.139c0-9.429-6.293-15.723-15.723-15.723h-267.139c-18.86 0-31.42-12.563-31.42-31.42v-62.863c0-18.86 12.563-31.42 31.42-31.42h267.139c9.429 0 15.723-6.293 15.723-15.723v-267.139c0-18.86 12.563-31.42 31.42-31.42h62.863c18.86 0 31.42 12.563 31.42 31.42v267.139c0 9.429 6.293 15.723 15.723 15.723h267.139c18.86 0 31.42 12.563 31.42 31.42v62.863c0 18.86-12.563 31.42-31.42 31.42z" />
<glyph unicode="&#xe93f;" glyph-name="search" d="M436.224 220.267c-168.755 0-306.108 134.963-306.108 300.715 0 165.82 137.353 300.715 306.108 300.715s306.108-134.895 306.108-300.715c0-165.751-137.353-300.715-306.108-300.715zM1004.749 37.244l-224.188 220.57c59.529 75.298 91.955 167.595 91.955 263.168-0.068 237.022-195.789 429.807-436.292 429.807s-436.224-192.785-436.224-429.807c0-236.954 195.721-429.807 436.224-429.807 89.429 0 177.084 27.443 249.993 77.687l226.918-223.232c12.22-12.015 28.467-18.705 45.739-18.705s33.451 6.554 45.807 18.569c12.493 12.22 19.319 28.535 19.319 45.875s-6.895 33.724-19.251 45.875z" />
<glyph unicode="&#xe940;" glyph-name="smile" d="M813.517 740.326c-166.264 166.279-436.771 166.279-603.003 0.041-166.264-166.24-166.247-436.756 0.017-603.027 166.215-166.231 436.722-166.231 602.97 0.032 166.247 166.24 166.24 436.739 0.017 602.954zM352.966 554.251c0 27.518 22.318 49.836 49.836 49.836 27.509 0 49.827-22.311 49.827-49.836 0-27.533-22.318-49.844-49.827-49.844-27.518 0-49.836 22.311-49.836 49.844zM578.934 554.251c0 27.518 22.334 49.836 49.851 49.836 27.509 0 49.827-22.311 49.827-49.836 0-27.533-22.311-49.844-49.827-49.844s-49.851 22.311-49.851 49.844zM696.752 350.143c-30.886-71.422-103.216-117.568-184.258-117.568-82.786 0-155.543 46.38-185.358 118.163-5.111 12.289 0.716 26.401 13.020 31.512 3.022 1.245 6.157 1.84 9.242 1.84 9.451 0 18.419-5.586 22.27-14.868 22.318-53.733 77.595-88.436 140.827-88.436 61.803 0 116.757 34.726 139.999 88.491 5.288 12.224 19.48 17.858 31.697 12.561s17.849-19.48 12.561-31.697z" />
<glyph unicode="&#xe941;" glyph-name="bullhorn" d="M1024 523.723c0 200.926-58.792 363.938-131.482 365.226 0.292 0.006 0.578 0.030 0.872 0.030h-82.942c0 0-194.8-146.336-475.23-203.754-8.56-45.292-14.030-99.274-14.030-161.502s5.466-116.208 14.030-161.5c280.428-57.418 475.23-203.756 475.23-203.756h82.942c-0.292 0-0.578 0.024-0.872 0.032 72.696 1.288 131.482 164.298 131.482 365.224zM864.824 213.727c-9.382 0-19.532 9.742-24.746 15.548-12.63 14.064-24.792 35.96-35.188 63.328-23.256 61.232-36.066 143.31-36.066 231.124 0 87.81 12.81 169.89 36.066 231.122 10.394 27.368 22.562 49.266 35.188 63.328 5.214 5.812 15.364 15.552 24.746 15.552s19.536-9.744 24.744-15.552c12.634-14.064 24.796-35.958 35.188-63.328 23.258-61.23 36.068-143.312 36.068-231.122 0-87.804-12.81-169.888-36.068-231.124-10.39-27.368-22.562-49.264-35.188-63.328-5.208-5.806-15.36-15.548-24.744-15.548zM251.812 523.723c0 51.95 3.81 102.43 11.052 149.094-47.372-6.554-88.942-10.324-140.34-10.324-67.058 0-67.058 0-67.058 0l-55.466-94.686v-88.17l55.46-94.686c0 0 0 0 67.060 0 51.398 0 92.968-3.774 140.34-10.324-7.236 46.664-11.048 97.146-11.048 149.096zM368.15 310.807l-127.998 24.51 81.842-321.544c4.236-16.634 20.744-25.038 36.686-18.654l118.556 47.452c15.944 6.376 22.328 23.964 14.196 39.084l-123.282 229.152zM864.824 404.249c-3.618 0-7.528 3.754-9.538 5.992-4.87 5.42-9.556 13.86-13.562 24.408-8.962 23.6-13.9 55.234-13.9 89.078s4.938 65.478 13.9 89.078c4.006 10.548 8.696 18.988 13.562 24.408 2.010 2.24 5.92 5.994 9.538 5.994 3.616 0 7.53-3.756 9.538-5.994 4.87-5.42 9.556-13.858 13.56-24.408 8.964-23.598 13.902-55.234 13.902-89.078 0-33.842-4.938-65.478-13.902-89.078-4.004-10.548-8.696-18.988-13.56-24.408-2.008-2.238-5.92-5.992-9.538-5.992z" />
<glyph unicode="&#xe942;" glyph-name="all-video" d="M1024 749.713v-621.714c0-14.857-9.143-28-22.286-33.714-4.571-1.714-9.714-2.857-14.286-2.857-9.714 0-18.857 3.429-25.714 10.857l-230.286 230.286v-94.857c0-90.857-73.714-164.571-164.571-164.571h-402.286c-90.857 0-164.571 73.714-164.571 164.571v402.286c0 90.857 73.714 164.571 164.571 164.571h402.286c90.857 0 164.571-73.714 164.571-164.571v-94.286l230.286 229.714c6.857 7.429 16 10.857 25.714 10.857 4.571 0 9.714-1.143 14.286-2.857 13.143-5.714 22.286-18.857 22.286-33.714z" />
<glyph unicode="&#xe943;" glyph-name="brush" horiz-adv-x="5689" d="M2253.042 63.713c2.125 0 4.269 0 6.394-1.137-2.125-1.137-4.977-1.137-7.102-2.275-1.416 1.137-2.841 1.137-4.269 2.275 1.416 1.137 3.558 1.137 4.977 1.137zM3013.51 62.677c0-2.751 0.339-5.501 0.339-8.253h84.246c0 4.127-0.339 8.253-0.339 12.040-28.193-1.036-56.397-2.412-84.246-3.788zM2918.948 61.1c0.339-2.566 0.339-5.5 0.687-8.067 20.293 2.566 40.572 4.762 61.202 7.329 0 1.465-0.339 2.935-0.339 4.037-20.632-1.106-40.927-2.196-61.559-3.304zM4484.532 145.208h-3.411c0-1.137 1.137-1.137 1.137-2.275 2.275 1.137 4.548 1.137 6.823 2.275h-4.548zM5156.813 342.246c35.071-2.751 69.811-13.755 105.218-23.723-15.47-6.877-31.636-9.289-40.927-42.301-14.094 39.89-34.388 28.886-53.306 27.171-8.593-0.687-17.192-2.412-25.796-1.715-23.723 2.751-47.106-1.036-70.152-23.384 9.628-2.063 18.918-5.162 28.547-6.189 37.821-3.438 75.653-5.842 113.472-9.969 5.842-0.687 11.69-8.593 20.632-15.816-11.343-12.719-19.258-21.669-26.135-29.569 3.438-1.036 8.593-2.751 14.094-4.814-28.547-26.818-56.397 1.715-84.585 1.376 22.008 5.162 43.677 10.314 65.686 15.47-121.385 27.85-243.454 26.474-368.966 44.017 11.343-18.566 11.343-18.566 45.393-25.098-13.065-2.412-25.796-4.814-38.854-7.217v-2.751c4.466-1.036 8.939-2.063 14.792-3.438-1.376-11.343-2.412-20.973-4.127-34.728 9.289-2.063 18.918-4.127 33.012-7.565-18.566-7.914-36.8 4.814-44.356-32.32-12.38 14.441-19.597 44.356-38.514 25.444-11.69-20.293-11.69-20.632-24.42-20.973 1.376 23.723-6.877 32.32-18.221 31.636-9.628-0.339-19.597-1.036-29.569-1.715-15.131-7.217-26.818-13.065-44.697-21.669 36.8-4.814 64.649-8.253 92.16-12.040v-8.593c-43.323-5.842-86.657-5.162-130.324-0.339-40.229 4.127-80.459 6.189-121.046 8.939l0.687-0.687c-0.339 0-0.687-0.339-1.036-0.339v0.339c-55.7 6.189-111.071 14.441-167.116 18.221-8.939 0.687-18.221 1.036-27.171 1.715 4.466-1.036 8.939-2.063 13.416-3.438 0-1.036 0-1.715 0.339-2.751-4.814-0.339-9.628-1.036-14.441-1.036-26.818 0-53.645-0.687-80.459 0.339-6.189 0.339-12.38 5.162-18.566 7.914 2.412 0.687 5.162 1.376 7.565 2.063-6.877 0.339-13.416 0.339-20.293 0.687 4.466-1.036 8.939-2.412 13.416-3.438-64.649-8.253-129.299-2.751-193.941 7.914-17.192 2.751-34.728-0.339-52.27-0.339-10.314 0-20.973 0.687-35.071 1.376 5.503-5.501 7.217-8.939 8.939-8.939 36.8-0.687 72.902-16.166 110.042-14.094-3.438 0.687-6.877 1.036-10.314 1.715 6.877-0.339 13.755-0.339 20.632-0.687 1.715 0.339 3.438 0.687 5.503 1.036 7.914 1.715 16.166 0.687 24.759-1.715l242.080-6.189c28.886-0.687 57.771-0.687 86.998-1.036 15.47-0.339 32.32 1.715 42.301-14.441-114.846 3.438-229.701 0.339-344.207 12.38 4.814-1.715 9.628-3.438 14.792-4.466 21.669-4.814 43.323-8.939 64.989-11.343 25.444-2.751 50.894-2.412 76.333-4.466 45.052-4.127 90.087-11.69 135.14-13.065 50.199-1.715 100.413-3.438 150.271-18.918 29.923 12.040 59.147-6.189 89.066-6.538 12.719-0.339 25.444-5.501 38.175-14.792-113.82 8.939-227.3 18.566-341.11 26.818 9.628-1.715 19.258-3.438 28.886-5.501-41.947-1.376-83.906-3.438-125.851-3.788-52.27-0.339-104.539 2.063-156.455 1.376 16.166-2.063 32.673-4.127 48.823-5.162 33.352-2.412 67.060-3.090 100.413-6.189 2.412-0.339 4.814-0.339 7.217-0.687 9.969 3.788 20.293 12.38 32.32-3.438 4.466-0.687 8.939-1.036 13.416-1.715-0.687 0.339-1.376 0.687-1.715 1.036 0.339 2.063 1.036 4.127 1.376 6.538 3.788-2.412 7.914-4.814 11.69-7.217 0-0.687-0.339-1.036-0.339-1.715 12.38-1.715 25.098-3.090 37.478-4.466v-8.253l-28.886 1.036c-78.744 2.751-157.488 5.842-235.892 8.593-24.759 1.036-49.519 1.036-74.278 3.090-36.445 2.751-72.902 7.565-109.006 10.314-27.51 2.063-55.021 3.438-82.53 2.751-8.939-0.339-17.882-0.339-26.818-0.687 7.217-1.715 14.094-4.814 21.317-13.065 1.376-1.715 3.090-2.751 5.162-3.438-43.677-0.339-86.998 5.162-130.674 12.719l-41.266-2.063c-37.478-1.715-75.313-5.501-113.131-9.628 118.973-5.501 237.607-11.004 356.586-16.506 0-3.090 0.339-6.189 0.339-9.289-2.751-1.036-5.162-2.412-7.914-2.751-3.788-0.687-7.217-0.687-11.004-0.687-28.193 2.063-56.736 4.466-84.939 5.842-44.356 2.063-88.711 5.842-133.426 4.814-33.352-0.687-66.703-9.969-100.068-12.38-56.736-4.466-113.82-6.189-170.562-10.665-30.601-2.412-61.202-8.939-91.463-12.719-14.441-1.715-28.886-2.751-43.323-3.090-11.004-0.339-22.008 3.438-32.673 1.715-25.098-3.788-48.823 9.289-72.902 17.542-6.877 2.412-14.094 8.593-19.597 16.506-6.877 9.628-9.628 23.044-2.412 34.388 0 0.339 0 1.036 0.339 1.376-10.314 0.339-20.632 0.687-30.601 1.036v-1.376c-2.412-1.036-5.162-2.412-7.565-2.751-3.438-0.687-7.217-0.687-10.665-0.687-27.51 1.715-55.021 4.466-82.53 5.842-17.542 1.036-35.071 2.063-52.95 3.090-20.973 0.339-41.947 0.339-62.935 0.687-9.289 0-18.918 0-28.193 0.339-27.51-2.412-55.021-9.289-82.53-11.343-17.542-1.376-35.071-2.412-52.27-3.438 13.755-1.036 27.85-2.412 41.605-3.438 14.441-1.376 28.547-3.438 42.981-4.814 17.192-2.063 34.048 0.339 50.894-15.131 1.715-1.715 3.788-2.751 5.842-3.438-21.317 0-42.981 0.687-64.31 2.063-19.258-11.69-36.102-3.788-52.609-2.412-21.317 1.715-43.323 1.036-64.649 1.376-19.597 0.339-39.196 0.687-58.451 1.036 0.687 3.438 1.715 6.538 2.412 9.969 37.478-1.376 75.313-2.412 114.168-3.788-32.32 4.127-64.989 9.289-97.317 14.441-11.004-0.687-22.347-1.376-33.352-2.412-18.918-1.376-37.821-4.466-56.736-7.565 13.755-1.036 27.51-2.063 40.927-2.751 0-2.751-0.339-5.501-0.339-8.593l-42.301-2.063c0.339 4.466 0.339 8.939 0.687 13.416-9.969-1.715-19.942-3.090-29.923-4.466h1.376v-4.814c-6.538 0-13.065-0.339-19.597-0.339v3.438c-8.253-0.687-16.506-1.036-24.42-1.036-5.162 0-9.969 0.687-15.131 1.376 1.036-0.687 2.063-1.715 3.090-2.412-75.313-6.189-143.393-2.751-211.472 1.715 18.566 3.438 37.139 8.593 56.056 9.289 29.569 1.036 58.808 0.687 88.372 0.687-7.914 3.090-15.47 6.189-23.384 8.593-5.162 1.715-10.665 5.842-15.131 11.343-47.448 1.376-94.568 2.751-142.018 4.466-28.547 1.036-57.432 1.036-85.961 2.751-11.69 0.687-23.723 1.715-35.424 2.751-53.985-0.339-107.969-1.036-161.957-1.715-113.131-1.036-226.264-0.687-339.395-2.751-5.162-0.339-10.314-1.036-15.131-1.376 137.551-5.162 275.089-10.665 412.637-15.816 0-2.751 0.339-5.501 0.339-8.253h36.8c0.339 1.715 0.687 3.090 1.036 4.814 3.788-1.036 7.565-2.063 11.004-2.751 0-0.687 0-1.376-0.339-2.063 61.559-0.339 123.447-1.715 184.998-3.090 7.565 0 14.792-3.788 22.347-6.538-14.094-0.339-27.85-0.687-41.947-1.376v-6.189c-19.942 0.687-40.229 1.036-60.183 1.715v2.412c-50.555-1.376-101.444-3.090-151.986-3.788-133.765-2.412-267.53-1.715-401.291-5.842-156.808-4.814-313.599-13.065-470.408-20.632-83.906-4.127-167.81-9.289-251.706-14.094-44.697-2.751-88.033-15.131-133.765-12.38-27.51 1.715-55.36-11.343-83.565-16.846-11.343-2.063-23.044-2.412-34.388-2.751-85.282-0.339-170.904-0.339-256.183 0-36.102 0-72.206 1.036-108.666 6.877 23.723 2.751 47.106 6.538 70.83 7.565 103.164 5.842 206.32 10.314 309.134 16.846 173.994 11.343 348.333 22.693 522.329 35.424-9.969 3.090-20.293 6.538-30.262 9.289-7.914 2.063-16.166 8.253-22.693 15.816-0.687 1.036-1.715 2.063-2.412 2.751-122.761-6.877-245.522-14.094-368.62-20.973-96.965-5.162-193.941-10.665-290.913-13.755-83.565-2.412-167.458-2.412-251.362-0.339-24.068 0.339-49.179 7.914-71.187 17.542-12.719 5.501-30.601 24.42-28.886 33.352 5.501 26.818-13.065 37.821-26.135 50.555-59.487 55.7-67.401 126.198-59.826 200.129 3.090 30.262 17.882 59.487 19.258 89.409 2.063 46.072 7.914 87.69 50.199 115.543 5.501 3.788 11.343 11.004 12.38 17.192 6.877 43.323 38.175 54.682 84.246 58.808-18.566 9.969-29.923 16.166-44.697 24.068 22.008 24.42 42.641 47.106 66.025 73.241 8.593-0.339 21.669-0.687 37.478-1.376 13.755 35.071 51.233 36.102 81.156 45.052 22.008 6.538 40.927 18.221 61.559 24.42 31.636 9.628 65.328 13.416 98.693 16.506 69.455 6.189 139.266 10.314 208.721 15.47 8.593 0.687 24.759 1.715 24.759 3.788 2.063 23.723 20.973 15.47 31.977 16.166 108.666 7.565 217.323 14.792 325.98 19.942 24.068 1.036 48.482 2.412 72.562 3.438 9.969 2.063 20.293 3.090 30.601 1.715 0.687 0 1.036 0 1.715-0.339 85.282 3.788 170.561 7.565 255.833 10.314 24.068 1.376 48.143 3.090 72.562 2.063 10.665 0.339 21.317 0.687 31.977 0.687 162.99 3.438 325.98 2.751 489.32 4.127 65.328 0.687 130.674 3.090 196.002 2.412l136.516-1.036c19.258 5.842 38.175 15.131 58.111 12.040 26.818-4.127 53.645-3.090 80.814-1.376 43.677 2.751 87.337 8.253 131.014 11.343 37.821 2.412 75.993 6.538 113.82-6.189 2.063-0.687 4.127-3.090 6.189-2.751 52.609 7.914 105.569-3.090 158.184 0 9.289 0.687 18.918 2.751 27.85-9.969 4.127-5.842 15.47-3.788 19.942 2.751 11.004 17.882 23.044 11.343 34.048 7.914 43.323-14.094 86.998-14.792 130.674-7.565 12.719 2.063 26.135-1.376 38.854-2.751 2.063-0.339 4.466-2.412 6.189-1.376 37.821 23.723 75.313-14.094 113.131-2.751 7.565 2.412 15.47 4.127 25.098 6.877 0.687-2.751 1.715-7.914 3.090-14.792 36.102 3.090 72.206 7.217 108.666 9.628 39.196 2.412 78.405 6.877 117.258-6.538 2.063-0.687 4.127-3.090 6.189-2.751 54.324 8.253 109.006-3.090 163.331 0 9.628 0.687 19.597 2.751 28.886-10.314 4.466-5.842 16.166-4.127 20.293 3.090 11.343 18.221 23.723 11.69 35.071 7.914 44.697-14.441 89.748-15.131 134.801-7.565 13.416 2.063 26.818-1.715 40.229-2.751 2.063-0.339 4.466-2.412 6.538-1.376 39.196 24.068 77.707-14.441 116.919-2.751 7.914 2.412 15.816 4.127 26.135 6.877 0.687-3.438 2.063-9.969 4.127-18.566 31.977-2.412 64.649-4.127 96.965-8.593 7.914-1.036 15.47-8.253 24.42-15.131 5.162-1.715 9.969-3.090 15.131-4.814-0.339-2.412-0.339-4.466-0.687-6.877-3.788 1.036-7.217 2.412-11.004 3.438-3.788-9.289-6.189-15.816-9.289-23.384 27.85-20.973 57.432-15.816 89.409-17.542-4.127 9.969-7.217 15.47-8.939 22.008-4.127 14.094 0.339 27.85 6.538 28.886 13.065 2.751 26.818 0.687 39.89-1.715 6.538-1.376 13.065-7.914 17.882-10.665-3.788-0.687-9.289-2.063-15.47-3.438 1.715-11.343 3.090-22.008 5.162-36.102 7.565-1.036 16.166-2.412 25.444-3.788 4.127 13.755 8.253 26.135 11.004 34.728 14.441 7.914 27.511 14.792 40.229 22.347 16.506 9.628 64.649-5.842 78.744-25.796 1.376 5.842 2.412 11.69 3.788 17.542 0.687 0.339 1.376 1.376 2.063 1.376 2.412 0 11.004-6.877 16.166-13.065 15.816-18.566 35.763-19.258 48.143-2.751 14.441 18.918 28.193 15.816 38.175 5.501 12.38-13.065 24.42-19.597 39.89-23.723-3.090-8.939-5.162-15.131-7.217-21.317 25.444-27.85 25.444-25.796 49.179-27.51 43.677-3.438 86.998-9.969 130.674-14.441 15.131-1.715 30.601-1.376 45.732-2.063 6.877-0.339 13.755-1.376 20.632-9.628-13.416-1.036-26.474-1.715-39.89-3.090-8.939-0.687-18.918 3.788-24.42-16.846-1.036-3.438-7.565-1.036-12.719-1.376 2.751 6.538 4.814 11.004 6.877 16.506-21.317 6.877-21.669 6.538-24.42-27.85-11.343-0.687-23.044-5.501-31.297 18.918 3.788 3.788 7.217 6.877 12.38 12.040-25.444 23.044-50.555 9.628-79.083 11.69 13.065-24.068 28.886-2.412 39.196-24.759-9.628-10.314-18.918-13.416-29.225-8.253-23.044 11.69-45.732 10.665-68.437-5.501-4.127-14.094 15.47-8.253 6.538-26.135 2.063-3.090 4.814-8.939 6.538-8.593 16.846 4.466 34.728-10.314 50.555 14.094 3.438 5.162 15.47 3.788 17.192-1.715 8.939-28.193 24.068-19.597 33.012-12.38 23.723 19.597 46.767 12.040 70.83 8.939 40.572-5.501 81.495-7.914 122.072-11.69 34.048-3.438 68.437-7.565 102.468-10.665 7.914-0.687 18.221-7.565 18.221 15.47 10.314-7.217 19.258-13.416 28.547-20.293 11.69 28.886 26.818 31.297 45.052 24.42-3.438-11.004-6.189-19.258-9.289-28.547 4.466-1.715 7.565-3.090 13.065-5.162-31.297-2.412-60.183-4.466-89.409-6.538 114.168-26.474 229.015-31.636 342.832-66.364-4.814-0.339-9.628-1.376-14.441-1.036-33.352 3.438-66.364 7.565-99.716 11.343-14.441 1.715-28.886-1.036-42.641 11.343-4.127 3.788-9.969 2.412-14.792 2.751-17.542 0.687-34.728 1.376-52.27 1.376-24.068 0-47.804-1.376-71.867-1.036-12.040 0-23.723 1.715-36.102-4.127 16.166-3.090 31.977-6.189 50.199-9.628-15.816-27.51-15.816-27.51-35.424-7.914-5.842-4.814-12.38-10.314-18.566-15.816 0-2.063 0-4.466-0.339-6.538 11.69-3.438 23.384-8.593 35.071-9.628 29.569-2.751 59.487-4.127 89.066-5.842 1.376 0 3.090-0.687 4.466 0 21.669 9.969 43.323 10.665 65.328-0.687 9.969-5.162 20.632-2.751 31.297-10.665 9.289-7.217 20.632-12.38 31.636-2.751 4.127 3.438 9.969 2.412 14.792 1.036 15.816-5.842 31.636-13.416 47.804-18.918 9.289-3.090 18.918-5.842 28.193-4.814 14.792 2.063 24.759-9.628 31.977-31.297-3.090-13.755-5.842-26.818-8.939-41.605-6.189-2.063-13.416-5.162-20.293-6.538-5.503-1.036-11.004 0.687-8.939-14.792 0.339-2.063-1.376-6.538-1.715-6.538-16.166 4.127-27.85-23.384-44.017-22.008-10.665 1.036-21.669-1.376-32.32-2.063-3.090 12.040-5.162 20.293-7.217 28.547-8.939-0.687-17.192-1.376-25.796-2.063 0-1.376-0.339-2.751-0.339-4.127 5.162-3.090 10.665-6.538 18.918-11.69-92.499-29.923-181.908-10.665-271.312-12.719 36.445-13.755 72.206-11.343 107.63-14.094zM5261.348 382.806v-7.574c6.877 0.944 13.755 2.841 20.632 3.797v7.574c-6.877-0.944-13.755-1.889-20.632-3.797zM5141.683 411.362c-8.253-0.687-16.506-1.376-24.759-1.715 1.036-5.162 2.412-13.755 3.090-13.416 7.565 2.063 14.792 5.501 22.008 8.593 0 2.063 0 4.466-0.339 6.538v0zM4981.444 424.775c-29.923 1.376-59.487 1.376-89.409 2.063v-8.593c30.262-4.127 60.523-8.593 90.784-12.38 23.384-2.751 46.428-6.189 69.811-6.189 21.317 0 42.981-4.127 63.613 9.628-12.040 2.751-24.068 6.538-36.102 7.914-33.012 3.438-65.686 5.842-98.693 7.565zM4771 398.642c-5.503-3.591-11.004-7.78-16.507-11.371 5.503 0.599 11.343 1.197 16.846 2.393-0.339 2.393-0.339 5.984-0.339 8.976v0zM4706.695 276.011v2.53c-17.882 1.265-35.763 2.53-53.645 4.215v-11.371c18.221 1.265 35.763 2.953 53.645 4.634zM4730.078 272.434c9.628-3.788 19.258-8.939 28.886-11.343 8.939-2.412 18.918-12.719 29.225 12.040-21.669 0.687-40.229 1.715-58.808 2.412 0.687-1.036 0.687-2.063 0.687-3.090v0zM4627.626 205.633c-3.591 1.137-7.78 2.275-11.371 1.137 4.189 0 7.78-1.137 11.371-1.137zM4409.253 258c-4.466-1.376-8.939-2.751-13.065-3.788 0.339-3.438 0.687-6.538 1.376-9.969 4.466 2.751 8.593 5.162 13.065 7.914-0.687 1.715-1.036 3.788-1.376 5.842zM4031.348 712.242c15.816-5.842 30.944-6.538 46.072-6.877 0.687 0 1.036 3.788 1.715 5.501-5.162 2.063-10.314 4.127-16.166 6.189 1.036 3.788 2.412 7.217 3.438 11.004-6.189-0.339-12.719-1.036-18.918-1.376v-4.127c-5.503-3.788-11.004-7.217-16.166-10.314zM4547.141 663.394c3.788 1.038 7.914 2.063 11.69 3.098v8.273h-11.69v-11.371zM3896.897 738.33c5.842-1.482 11.343 0 16.506-4.455-5.503 14.853-10.665 13.854-16.506 4.455zM3825.716 714.994c-2.063-6.877 1.376-8.939 4.466-11.343 20.632-0.339 41.947-14.094 61.898 6.189 1.376 1.376 4.466-4.814 6.877-5.501 22.008-5.842 43.677-14.441 66.703-4.127-0.339 3.438-0.687 6.877-1.376 9.969-6.538 0.687-12.719 4.466-17.882 19.258 3.788 3.438 6.877 6.877 12.040 11.69-4.127 3.788-8.253 6.538-12.38 8.593-2.751 0.687-5.503 1.376-8.253 2.412-0.339-2.412-1.036-4.814-1.376-7.217 2.412-3.438 4.814-7.217 7.217-10.665-5.162-7.914-9.969-15.47-15.816-24.068-1.376 12.719-2.412 22.347-3.438 33.695-2.751-3.438-6.189-7.565-7.914-9.628 1.036-1.376 2.412-3.090 3.438-5.501-9.628-10.314-18.221-13.065-28.193-8.253-9.628 4.814-19.258 7.565-28.886 7.565-2.063-5.842-3.438-9.969-4.814-14.094-1.036 4.466-2.412 8.939-3.438 13.755-9.969-1.715-19.597-5.501-28.886-12.719v0zM2178.263 710.343c0.339 1.705 0.687 3.977 1.376 5.685-6.877-3.411-13.416-6.823-17.882-9.096 8.593-0.569 17.542-1.137 26.474-2.275-3.090 1.705-6.538 3.411-9.969 5.685zM3021.164 735.283c-1.17-3.342-1.956-6.013-3.528-10.026 2.742-0.672 5.1-0.672 7.843-1.345 1.17 4.015 2.358 7.356 3.528 11.371h-7.843zM2976.378 736.308c-0.339-2.063-0.339-3.098-0.687-5.173 6.877-2.063 14.094-4.136 20.973-6.195 0.339 3.098 0.687 7.233 1.036 10.331-7.217 0-14.094 0-21.317 1.038zM4350.796 292.272c4.466 0 9.289-0.944 13.755-0.944-0.339 3.797-0.339 7.574-0.687 11.371-4.814-0.944-9.289-1.889-14.094-2.841v-7.574h1.036zM4385.182 296.154c10.665-0.687 21.317-1.379 31.977-2.417 0 2.063 0 4.136 0.339 6.195-10.665 1.719-21.317 3.438-31.636 5.173-0.687-3.098-0.687-5.855-0.687-8.953v0zM4425.759 338.093v9.096c-4.127 0.913-8.593 1.36-12.719 2.275-5.162-2.722-9.969-5.461-14.792-10.009 9.289-0.449 18.221-0.913 27.511-1.36zM3808.2 745.656c-4.015 2.275-8.028 2.275-11.371 1.137 4.015 0 7.356-1.137 11.371-1.137zM2211.963 740.783c-1.376-0.339-2.412-0.687-3.788-0.687 12.719-4.814 23.044-8.593 33.695-12.38-8.939-5.842-17.882-12.040-29.225-19.597 9.969-0.339 19.597-1.036 29.923-1.376 1.715 3.438 3.438 7.217 5.162 11.004 0 2.412 1.376 4.466 2.751 6.189l1.036 2.063c-1.715 1.036-3.438 1.715-4.814 2.751 0.687 1.376 1.376 3.090 2.412 4.466-12.719 4.127-25.098 6.538-37.139 7.565v0zM2188.579 741.129c-21.317-1.036-42.981-4.814-64.31-7.914l25.796-7.217c11.004-0.339 21.669-1.036 32.673-1.376 2.063 5.501 4.127 11.004 5.842 16.506zM4472.868 291.95c11.343-2.358 26.135-5.1 40.927-7.843 0.339 3.917 0.339 7.445 0.687 11.371-15.131-1.17-29.923-2.358-41.605-3.528v0zM4531.325 367.006c-26.135 20.632-87.69 23.723-106.593 10.665 17.542-4.814 35.071-12.38 52.95-14.094s35.763 2.063 53.645 3.438zM4017.936 714.652c-11.69-1.036-23.723-1.715-35.424-2.751-0.339-4.127-0.687-8.253-1.036-12.040 12.38-1.036 24.068 13.065 36.445 14.792zM4528.575 250.319c-0.339 0-0.687 0-1.036 0.394-11.69 3.199-23.723 3.199-36.102 2.401-0.339-0.394-0.687-0.806-1.036-1.595 13.416-17.989 27.85-3.601 41.266-7.991-1.036 2.401-2.063 4.395-3.090 6.79v0zM4855.933 426.628v-9.096c3.788 1.522 7.565 3.026 11.69 4.548 0 2.275 0 4.548-0.339 6.823l-11.343-2.275zM4813.98 367.345c20.973-5.162 41.947-6.538 62.935-7.914 52.27-3.438 104.54-6.538 156.808-9.628 0.687 0 1.715 2.412 1.036 1.715-3.788 7.565-7.217 14.792-12.38 25.098-7.914-0.687-16.846 1.036-25.098-2.412-41.947-17.192-83.906-2.412-125.851-2.751-18.918-0.339-38.175-2.751-57.432-4.127zM4977.662 621.348c13.755-2.275 27.511-4.548 40.927-6.437 0.339 3.797 0.339 7.574 0.687 11.371-13.755-1.137-27.85-2.275-41.605-3.411v-1.522zM4760.683 618.026c-0.687-2.063-1.036-4.127-1.715-5.842-0.339-1.036-1.376-1.376-1.715-2.412-0.339-0.687-0.339-1.715-0.339-1.376 86.998-7.914 174.334-15.816 263.403-23.723-3.090 3.090-4.814 6.189-6.877 6.877-35.763 9.628-71.526 20.632-108.32 14.792-8.939-1.376-18.918-3.438-24.759 15.131-1.036 3.438-4.814 6.189-7.217 5.842-21.669-2.751-44.697 23.384-64.989-11.004-15.47 6.538-31.636-11.004-47.448 1.715v0zM4666.464 635.214c0-3.438 0-6.877 0.339-10.314 31.297-2.063 62.576-4.127 94.214-5.842 2.063 11.004 0.339 16.846-6.538 17.192-13.416 0.687-27.171 2.063-40.572 2.412-7.914 0.339-15.816-1.036-23.723-1.715-8.253-0.687-16.166-1.376-23.723-1.715v0zM4605.6 757.289c13.065 6.877 31.636-18.566 40.229 21.317-8.253 9.628-14.094 2.412-20.293-4.127-6.538-6.877-13.416-11.69-19.942-17.192zM4571.557 759.009c6.538 1.376 12.719 2.751 21.669 4.466-9.628 25.796-15.816 9.628-21.669-4.466zM4537.858 760.703c4.814 1.137 9.289 2.275 14.094 3.411v4.548c-4.814 1.137-9.289 2.275-14.094 3.411v-11.371zM4506.566 740.783c5.503-4.127 11.343-8.593 16.846-12.719-16.166-3.438-31.297 1.036-46.072 3.788-7.217 1.376-13.416 4.466-20.973-8.939-6.538-11.004-20.293-7.914-30.601-10.665-2.751-0.687-5.842-1.376-8.593-2.063v-6.189c18.221-4.127 36.445-7.914 54.682-12.040 0-1.715 0-3.438-0.339-5.501-10.665-0.687-21.317-1.715-31.977-2.412 5.503-5.501 11.343-4.814 16.166-8.253 20.632-13.755 41.266 2.751 61.559-2.751 2.751-0.687 7.914 0.339 8.253 2.412 3.438 24.42 18.221 20.973 25.098 36.445l-11.343 11.343 1.036 6.189c32.32-2.751 64.989-5.501 97.317-8.253v8.253c-18.221 11.004-116.222 18.918-131.014 11.343v0zM4490.061 740.435c0 2.751 0.339 5.501 0.339 8.253-8.593 1.036-17.542 2.063-26.135 3.438 0-1.715 0-3.438-0.339-5.162 8.939-2.412 17.542-4.466 26.135-6.538zM4428.854 780.321c24.068-8.593 48.482-12.719 72.562-3.788-24.068 3.788-48.143 15.47-72.562 3.788zM4415.785 788.574c4.466-3.090 8.253-5.501 12.040-7.914 1.376 5.501 2.412 11.004 3.788 17.542-7.914 9.289-12.040 3.090-15.816-9.628v0zM4410.974 725.291c4.127 0 7.914-0.34 12.040-0.34 0 2.417 0.339 4.817 0.339 7.574-3.788 1.379-7.565 2.417-11.343 3.797-0.339-3.797-0.687-7.574-1.036-11.030zM4341.513 686.868v-6.63c7.217 1.889 14.441 2.841 21.317 4.741v6.63c-6.877-1.889-14.094-2.841-21.317-4.741zM4346.669 732.532c-3.788-0.944-7.565-1.889-11.69-1.889v-9.478c3.788 0.944 7.565 1.889 11.69 1.889 0.339 2.841 0 5.685 0 9.478zM4154.452 705.023c28.193-7.565 56.397-11.004 84.246-14.792 18.221-2.412 32.673-4.466 44.356-4.814 7.217 5.501 15.47 5.842 24.759 3.090 5.162 2.063 9.628 4.814 13.755 9.289-7.565 1.376-14.094 2.412-20.632 3.788-5.162-2.751-9.289 0.339-20.973 8.939 12.040 1.036 21.317 1.715 32.32 2.412-2.063-2.412-3.788-4.127-5.162-5.842 7.217 2.412 13.755 7.565 13.755 30.262-6.877 0.687-13.065 3.090-18.566 1.376-7.565-2.412-7.217 9.289-9.628 15.816h-0.687v1.715c-0.339 0.687-0.687 1.036-1.036 1.376-1.036 1.036-2.751 1.036-4.127 1.036-18.918-1.376-37.821-2.751-61.559-4.466 6.189-3.090 8.593-4.127 10.665-5.501-0.687-1.376-1.715-3.090-2.412-4.466-6.538-2.063-13.065-4.127-22.008-6.538 16.506-3.788 30.262-7.217 44.017-10.665-17.542-7.217-34.728-10.314-51.931-13.065-16.506-3.090-33.012-5.842-49.179-8.939zM4118.003 732.532c-8.939-6.877-17.542-14.094-29.225-23.384 30.944-15.816 40.927-13.065 52.95 11.69-6.538 4.127-13.416 8.253-19.942 12.38 3.090 7.217 6.189 14.094 8.939 20.973 6.538 1.376 13.416 3.090 20.632 4.466-19.942 1.715-39.551 22.008-58.808-1.036 6.877-1.036 13.755-2.063 20.973-3.090v-3.090c-7.565-2.063-15.47-3.788-24.068-6.189 10.314-4.466 19.258-8.593 28.547-12.719v0zM4052.666 768.29c7.217-5.162 10.665-7.565 14.441-10.314-0.339-2.751-1.036-5.162-1.376-7.914-1.715 0-3.438-0.339-5.503-0.339 2.751-1.376 5.503-3.438 8.253-6.877-12.719-1.036-25.796-1.715-38.514-3.090-4.814-0.339-9.969 0.687-14.094-1.376 6.877-2.412 13.416-4.814 20.293-6.877 10.314 0.687 20.632 1.715 31.297 2.412v-1.715c3.788 12.719 7.565 24.759 11.69 38.175-9.628-1.036-16.166-1.376-26.474-2.063v0zM2188.579 856.318c2.412 0.339 4.814 0.687 7.217 1.376 8.939 2.412 18.221 4.127 30.262 6.538 1.036-3.438 2.751-9.628 4.814-18.221 23.723-1.715 47.804-2.751 72.206-4.466 8.593 14.094 18.918 19.597 29.225 24.42-7.914 0.339-15.47 0.687-23.384 0-29.923-2.751-58.808-6.877-89.066 1.376-11.343 3.438-26.474 3.438-31.297-11.004zM2066.873 862.165c-3.931-1.137-7.438-2.275-11.371-3.411 2.622-2.275 4.814-5.685 6.996-2.275 1.311 2.275 3.064 3.411 4.375 5.685zM1922.449 862.511l-11.371-3.411c3.154 0 6.309-1.137 9.478-1.137 0.627 1.137 1.265 2.275 1.889 4.548zM1717.831 79.184c-36.102-0.687-71.867-8.253-107.969-11.343l116.222 1.036c63.613 0.687 126.887 2.412 190.501 3.438-14.792 1.036-29.569 1.715-44.697 2.412-51.574 2.063-102.818 5.842-154.057 4.466v0zM4404.783 215.676c1.376 1.085 2.412 2.712 3.788 3.797 0 2.712-0.339 5.411-0.339 7.574-13.416-1.626-26.474-4.335-39.89-4.335-13.755 0-27.51 4.335-41.266 3.254-4.127-0.543-7.914-1.085-11.69-2.712 29.923-2.169 59.826-4.873 89.409-7.574v0zM4424.728 213.642c8.253-1.072 16.166-3.215 24.42-4.286v1.072c-9.628 1.072-19.258 20.377-26.818 3.215 1.036 1.072 1.715 0 2.412 0zM4828.080 199.884c-4.127 14.792-7.914 28.193-13.065 36.8-49.179 1.036-98.341 1.715-147.859 2.751-1.376 0-2.751 0.687-4.466 0.339-42.301-4.127-83.21-0.339-124.823 8.253-1.715-1.376-3.090-2.751-4.814-4.127 19.942-3.090 39.89-7.914 59.826-9.289 31.977-2.412 63.952-2.063 95.942-3.438 3.438 0 6.877-3.438 12.38-6.189-5.162-6.538-8.253-9.969-12.719-16.166 47.804-2.412 92.499-5.501 139.605-8.939v0zM5058.469 304.411c-15.47 30.262-24.068 30.601-46.428 2.063 10.665-4.814 22.693 7.565 34.048-8.593-38.514-6.189-105.915-1.036-117.258 9.969 16.506 1.376 31.297 2.412 48.482 3.788-37.139 26.818-73.581 24.068-109.695 30.262-19.258 3.438-37.478 2.751-56.397-2.063-4.127-1.036-8.593 1.376-13.065 2.063-10.665 2.412-21.317 4.814-31.977 7.565-4.814 1.036-9.628 2.751-14.441 4.127 0 2.412 0 4.814 0.339 7.217 13.416 1.036 26.818 2.063 41.266 3.090-3.438 24.068-11.004 21.317-18.918 16.506-8.939-5.162-17.192-7.217-22.347 11.343-2.412 2.063-4.814 5.162-7.217 6.538-13.065-0.687-26.135-1.715-39.196-2.751-13.416-1.376-27.171-3.438-40.572-6.189-8.253-1.715-8.939-15.131-3.438-29.923-5.842-1.715-11.004-3.090-16.166-4.814 9.628-2.412 19.258-1.376 28.547-3.788 3.438-1.036 6.189-10.665 9.289-16.166-2.063-3.438-4.127-7.217-7.217-12.719 11.69-0.687 22.008-2.412 31.977-2.063 11.004 0.339 20.293-8.253 30.262-15.131 14.792-9.628 27.85 2.751 34.728 33.012 20.293-20.293 44.017-1.036 65.328-31.977-13.755-1.036-24.42-1.715-35.071-2.751 31.636 0.687 63.274-18.221 92.838-6.189 1.036 8.939 1.715 13.755 2.063 18.566 3.438-1.715 7.914-1.715 9.969-5.842 7.565-15.816 16.846-17.542 27.51-18.221 31.297-2.412 62.576-5.162 93.535-12.040 13.755-3.788 23.723-0.339 29.225 25.098v0zM4676.092 39.881c3.797 0 7.574 0 11.371 1.137-3.797 0-7.574 0-11.371-1.137zM4605.257 59.586c-12.38 1.715-24.759 3.788-37.139 5.162-42.301 4.127-84.585 8.593-126.547 12.040-3.090 0.339-6.538-4.466-9.969-6.877 74.617-14.441 148.555-30.262 222.823-29.569-1.715 0.687-3.788 1.715-5.162 3.438-14.441 16.166-29.225 13.755-44.017 15.816zM4676.092 40.67c-7.217-1.137-14.441-2.275-21.669-2.275 6.189-7.959 14.441 0 21.669 2.275zM5454.944 539.624c28.547-4.127 57.075-7.914 85.622-12.040 0 3.090 0.339 5.842 0.339 8.939-28.547 5.501-56.736 11.004-85.282 16.846 0-4.466-0.339-9.289-0.687-13.755zM5556.386 522.081c31.636-3.090 62.935-6.538 94.568-9.628 0 2.412 0.339 4.814 0.339 7.217-31.297 5.162-62.576 9.969-93.875 15.131-0.687-4.466-1.036-8.593-1.036-12.719zM4806.073 88.129v-7.81c32.32-1.063 64.649-2.125 97.317-3.558-15.816 6.394-31.977 8.879-47.804 9.954-16.506 1.063-33.012 1.063-49.519 1.416v0zM5435 222.576c17.882-2.063 36.102-2.412 53.985-4.466 11.69-1.376 23.384-3.788 35.071-5.842 0 3.090 0.339 6.538 0.339 9.628l-100.068 7.217c3.438-2.412 6.877-5.842 10.665-6.538v0zM4908.543 207.787c-1.036-15.131-1.715-28.193-2.751-41.947 5.162 2.751 13.416-7.565 13.755 14.441 0 2.751 11.343 4.466 18.221 7.217-19.597 22.008-19.597 22.008-29.225 20.293zM5328.402 240.797c1.715-2.935 3.090-7.329 4.814-7.329 29.225-1.827 58.808-2.935 88.033-4.037-5.501 2.566-11.343 5.869-16.846 6.238-25.444 2.196-50.555 3.673-75.993 5.131zM5332.021 241.146c-2.275 0-3.411-1.137-5.685-1.137h6.823c0 1.137 0 1.137-1.137 1.137v0zM5421.246 230.143c2.275-1.137 4.548-1.137 6.823-2.275v0h4.548c-1.137 1.137-2.275 1.137-3.411 2.275h-7.959zM4034.785 39.106c17.192-0.753 34.728-1.522 51.931-1.889v7.959c-17.192 1.137-34.728 2.275-51.931 3.411v-9.478zM4732.142 87.19c12.040-5.685 24.068-6.553 36.102-6.996 4.127 0 8.253 0.867 12.38 0.867 0 3.498-0.339 6.996-0.339 10.494-15.816-1.311-31.977-3.064-48.143-4.375zM5231.089 648.63c-13.065 5.162-26.474 7.914-39.89-6.538 13.416-1.036 26.474-2.412 39.89-3.438v9.969zM5100.764 49.958v-8.253c12.38 1.036 24.759 1.715 40.229 3.090-15.131 23.044-27.85 6.877-40.229 5.162zM4937.428 248.024c-13.065-1.889-26.135-3.797-39.196-5.053v-6.309l39.196 5.685v5.685zM4565.368 144.841c10.665 0.867 21.317 2.182 31.977 3.064-10.665 2.622-21.317 5.242-31.977 8.307v-11.371zM5151.999 687.822c-11.69-1.036-21.317-1.715-33.352-2.412 18.918-14.094 18.918-14.094 33.352 2.412zM5296.421 304.050c8.939 1.265 17.542 2.53 26.474 3.797v7.574c-8.939-1.265-17.542-2.53-26.474-3.797v-7.574zM4864.186 697.781c11.69 1.36 23.723 2.275 35.424 3.635v7.736c-11.69-1.36-23.384-2.275-35.071-3.635-0.339-2.722-0.339-4.995-0.339-7.736zM5082.54 804.399c-7.914 2.412-15.816 4.814-24.068 7.217-0.339-2.412-0.339-4.466-0.687-6.877 7.914-2.412 15.816-4.814 24.068-7.565 0.339 2.412 0.687 4.814 0.687 7.217v0zM3244.927-29.878l-1.036-9.597c8.593 1.416 17.192 3.199 25.796 4.622 0 2.125-0.339 4.622-0.339 6.748-8.253-0.355-16.506-1.063-24.42-1.771zM5429.84 614.085c-5.162 0.421-10.665 0.421-15.816 0.844 0-3.797-0.339-7.574-0.339-11.371 5.503 0.421 10.665 0.844 16.166 1.265v9.262zM5294.36 233.214l31.977 6.823c-10.665 1.36-21.317 2.722-32.32 4.548 0.339-4.095 0.339-7.736 0.339-11.371v0zM5229.713 618.707c-8.253 2.412-14.441 4.466-20.293 6.189l-1.036-9.289c6.189-8.939 12.38-10.314 21.317 3.090zM5689.115 514.17c-5.842-1.038-12.040-3.098-17.882-4.136v-7.233c5.842 1.038 12.040 3.098 17.882 4.136v7.233zM4712.885 787.893c-0.339 1.376-0.339 2.751-0.687 4.466-6.538-0.339-12.719-1.036-19.258-1.376 0.339-3.438 1.036-7.217 1.376-10.665 6.189 2.412 12.38 4.814 18.566 7.565v0zM5142.369 228.419c-5.501-0.672-11.004-1.345-16.506-2.67 0-2.67 0.339-6.013 0.339-8.701 5.503 2.67 11.004 5.351 16.506 8.701 0 0.672 0 1.345-0.339 2.67zM4521.010 160.678c-6.189-0.339-12.040-1.036-18.221-1.376-0.339-1.036-0.339-2.412-0.687-3.438 5.162 0.339 10.314 0.687 15.131 1.036-11.343-3.788-22.693-7.914-34.048-11.69 16.166-0.339 36.102-12.719 42.301 14.792-1.376-0.687-3.090-1.036-4.466-1.715v2.412zM4601.893 149.675h-4.548c1.137 0 2.275 0 3.411-1.137h6.823c-1.137 1.137-3.411 1.137-5.685 1.137v0zM4621.418 151.051c-6.877-1.753-14.094-2.622-20.973-4.375 6.877-1.753 14.094-4.375 20.973-6.996v11.371zM4701.193 754.535c6.189 0.368 9.969 0.737 15.816 1.105-6.189 16.116-9.628 11.345-15.816-1.105zM3933.346 52.844c3.673-1.225 7.327-2.029 11.002-3.254 0 2.431 0.369 4.873 0.369 7.715-3.304 1.225-6.966 2.431-10.263 3.656-0.369-2.841-0.738-5.685-1.106-8.116zM5491.393 597.112l-1.036 8.521c-6.189-0.708-12.719-2.125-18.918-2.841v-8.521c6.877 0.708 13.416 2.125 19.942 2.841zM4456.707 13.535v-7.959l14.441 3.411v7.959l-14.441-3.411zM4571.9 817.923c-0.339 2.482-0.339 4.622-0.687 7.102-4.466-0.708-9.289-1.416-13.755-2.125 0.339-3.199 0.687-6.039 1.376-9.238 4.466 1.063 8.939 2.841 13.065 4.269v0zM5150.967 46.866c4.127-2.063 8.593-4.466 12.719-6.538 0.339 1.715 0.687 3.788 1.036 5.501-4.127 2.412-8.253 4.814-12.040 7.217-1.036-1.715-1.376-3.788-1.715-6.189v0zM5142.393 722.192v11.371c-3.914-0.944-7.457-1.889-11.371-1.889v-6.63c3.914-1.889 7.457-2.841 11.371-2.841zM5181.248 720.876v6.996c-3.656 0-7.715 0-11.371 0.867v-11.371c3.656 0.867 7.312 1.753 11.371 3.498zM5328.746 625.245c2.063 0.687 3.788 4.127 9.628 11.69-8.253-2.063-11.343-3.090-17.542-4.466 4.814-4.466 6.538-7.565 7.914-7.217v0zM5604.545 582.279v9.954c-3.635-0.708-7.736-0.708-11.371-1.416v-9.954c3.635 0.708 7.27 0.708 11.371 1.416zM3850.82 80.218c-6.877-1.137-14.094-2.275-20.973-2.275 6.189-7.959 13.755 0 20.973 2.275zM3850.82 79.423c4.058 0 7.312 0 11.371 1.137-3.254 0-7.312 0-11.371-1.137zM2463.669 11.375c-0.339-3.199-0.687-6.394-1.036-9.238 8.253 1.416 16.506 2.841 24.759 4.622 0 2.125-0.339 4.622-0.339 6.748-7.914-1.063-15.47-1.771-23.384-2.125v0zM3638.311 53.767v-7.959c4.814 1.137 9.289 2.275 14.094 3.411v7.959c-4.814-1.137-9.628-2.275-14.094-3.411zM2887.651 58.107c4.015 0 7.356 0 11.371 1.137-4.015 0-8.028-1.137-11.371-1.137zM2887.651 58.899c-8.253-1.137-16.846-2.275-25.098-2.275 7.217-7.959 16.506-1.137 25.098 2.275zM1232.295-9.642c-0.339-3.304-1.036-6.238-1.376-9.537 9.969 1.465 19.942 2.935 29.569 4.395 0 2.196-0.339 4.395-0.339 6.966-9.289-0.369-18.566-1.106-27.85-1.827v0zM2633.538 32.452v-7.959c5.503 1.137 11.004 2.275 16.846 3.411v7.959c-5.501-1.137-11.004-2.275-16.846-3.411v0z" />
<glyph unicode="&#xe944;" glyph-name="anchor-arrow" d="M512-73.143c-282.77 0-512 229.23-512 512s229.23 512 512 512c282.77 0 512-229.23 512-512s-229.23-512-512-512zM648.897 521.46l-136.888-149.501-136.232 148.798c-15.187 15.226-38.731 15.226-53.245 0.704-14.507-14.515-14.507-38.047 0.001-52.562l161.759-176.723c8.234-8.268 18.46-11.955 28.833-11.428 8.124-0.527 18.335 3.159 25.895 10.721l163.123 178.15c13.832 13.809 13.832 37.326-0.674 51.841-14.514 14.522-38.057 14.522-52.571 0z" />
<glyph unicode="&#xe945;" glyph-name="match" d="M954.804 661.748c133.203-121.635 52.942-363.918-187.94-528.612l-7.44-5.073-8.722 2.234c-282.696 72.363-440.974 272.593-357.406 432.455 60.418 115.523 213.562 118.708 282.583 39.103 37.627 98.428 182.617 147.807 278.889 59.908zM927.984 632.382c-91.008 83.090-238.424 6.507-219.836-98.894l-39.164-6.896c-18.59 105.382-183.316 126.944-240.427 17.736-68.166-130.402 67.681-304.667 323.295-373.216 216.746 151.843 284.794 362.057 176.131 461.278zM630.835 562.723c83.589-159.864-74.719-360.085-357.445-432.437l-8.722-2.234-7.44 5.073c-240.939 164.707-321.236 406.979-188.005 528.62 96.292 87.899 241.326 38.502 278.975-59.927 69.037 79.616 222.206 76.425 282.619-39.103z" />
<glyph unicode="&#xe946;" glyph-name="match-simple" d="M506.681 615.024c-97.138 97.145-255.273 97.153-352.393 0.023-97.138-97.12-97.131-255.258 0.017-352.403 97.108-97.118 255.242-97.111 352.371 0.018 97.125 97.119 97.128 255.244 0.013 352.351zM564.282 672.623c128.898-128.888 128.905-338.637-0.014-467.55-128.913-128.926-338.678-128.926-467.565-0.018-128.927 128.933-128.942 338.698-0.014 467.606 128.905 128.906 338.666 128.906 467.594-0.029zM862.406 607.706c-93.098 93.108-244.656 93.116-337.747 0.018-93.095-93.085-93.095-244.648 0.017-337.756 93.074-93.083 244.632-93.076 337.725 0.018 93.095 93.083 93.095 244.635 0.012 337.707zM927.326 672.623c128.898-128.888 128.905-338.637-0.014-467.55-128.913-128.926-338.678-128.926-467.565-0.018-128.927 128.933-128.942 338.698-0.014 467.606 128.905 128.906 338.666 128.906 467.594-0.029z" />
<glyph unicode="&#xe947;" glyph-name="check" horiz-adv-x="1331" d="M208.39 402.864c-7.199 7.199-10.798 17.996-10.798 25.195s3.599 17.996 10.798 25.195l50.39 50.39c14.397 14.397 35.993 14.397 50.39 0l3.599-3.599 197.961-212.358c7.199-7.199 17.996-7.199 25.195 0l482.305 500.302h3.599c14.397 14.397 35.993 14.397 50.39 0l50.39-50.39c14.397-14.397 14.397-35.993 0-50.39l-575.887-597.482c-7.199-7.199-14.397-10.798-25.195-10.798s-17.996 3.599-25.195 10.798l-280.745 302.34-7.199 10.798z" />
<glyph unicode="&#xe948;" glyph-name="add-request" horiz-adv-x="1257" d="M1112.175 501.445c13.632-13.573 13.632-35.711 0-49.223l-370.081-332.32c-6.637-6.757-15.564-10.255-24.612-10.255-4.525 0-9.109 0.906-13.453 2.656-12.97 5.49-20.692 18.157-20.692 32.213v182.416c-25.276 0-49.103-0.302-72.206-0.844-3.8-0.12-7.722-0.241-11.462-0.361-22.32-0.723-43.854-1.688-64.243-3.317-0.544-0.060-1.206-0.060-1.809-0.12-173.429-13.995-278.875-68.648-358.68-265.722l-40.235-19.845c38.666 489.521 326.95 590.019 548.639 590.019v179.581c0 14.176 7.722 26.843 20.692 32.152 4.284 1.809 8.806 2.656 13.27 2.656 9.109 0 18.157-3.558 24.793-10.255l370.081-329.424z" />
<glyph unicode="&#xe949;" glyph-name="like-off" horiz-adv-x="995" d="M898.437 281.426c17.973 22.925 26.593 47.501 25.493 72.811-1.1 27.877-13.571 49.702-23.843 63.089 11.922 29.711 16.505 76.479-23.292 112.792-29.161 26.593-78.679 38.514-147.272 35.213-48.234-2.2-88.582-11.188-90.234-11.554h-0.184c-9.17-1.65-18.891-3.668-28.795-5.869-0.734 11.738 1.284 40.898 22.925 106.556 25.677 78.129 24.209 137.919-4.768 177.899-30.445 41.998-79.047 45.3-93.352 45.3-13.755 0-26.409-5.686-35.397-16.139-20.357-23.659-17.973-67.309-15.405-87.483-24.209-64.923-92.068-224.117-149.472-268.317-1.1-0.734-2.018-1.65-2.934-2.568-16.873-17.789-28.244-37.047-35.947-53.92-10.822 5.869-23.109 9.17-36.314 9.17h-111.876c-42.182 0-76.295-34.297-76.295-76.295v-298.028c0-42.182 34.297-76.295 76.295-76.295h111.876c16.323 0 31.545 5.136 44.016 13.939l43.1-5.136c6.602-0.917 123.979-15.773 244.474-13.388 21.825-1.65 42.366-2.568 61.44-2.568 32.829 0 61.44 2.568 85.283 7.704 56.122 11.922 94.452 35.763 113.893 70.793 14.855 26.777 14.855 53.37 12.472 70.243 36.497 33.013 42.916 69.509 41.632 95.186-0.734 14.855-4.035 27.511-7.52 36.865zM147.774 57.31c-14.855 0-26.777 12.105-26.777 26.777v298.212c0 14.855 12.105 26.777 26.777 26.777h111.876c14.855 0 26.777-12.105 26.777-26.777v-298.028c0-14.855-12.105-26.777-26.777-26.777h-111.876v-0.184zM851.486 302.884c-7.704-8.070-9.17-20.357-3.302-29.895 0-0.184 7.52-13.021 8.436-30.629 1.284-24.025-10.27-45.3-34.479-63.457-8.62-6.602-12.105-17.973-8.436-28.244 0-0.184 7.886-24.393-4.952-47.318-12.288-22.009-39.614-37.78-81.063-46.584-33.196-7.152-78.313-8.436-133.701-4.035-0.734 0-1.65 0-2.568 0-117.927-2.568-237.139 12.837-238.423 13.021h-0.184l-18.523 2.2c1.1 5.136 1.65 10.638 1.65 16.139v298.212c0 7.886-1.284 15.589-3.484 22.741 3.302 12.288 12.472 39.614 34.113 62.907 82.347 65.291 162.862 285.557 166.345 295.094 1.468 3.852 1.834 8.070 1.1 12.288-3.118 20.541-2.018 45.666 2.384 53.186 9.72-0.184 35.947-2.934 51.72-24.759 18.707-25.859 17.973-72.077-2.2-133.333-30.811-93.352-33.379-142.502-8.987-164.145 12.105-10.822 28.244-11.372 39.982-7.152 11.188 2.568 21.825 4.768 31.913 6.42 0.734 0.184 1.65 0.366 2.384 0.55 56.304 12.288 157.176 19.807 192.204-12.105 29.711-27.143 8.62-63.089 6.236-66.941-6.786-10.27-4.768-23.659 4.402-31.913 0.184-0.184 19.441-18.34 20.357-42.732 0.734-16.323-6.97-33.013-22.925-49.518z" />
<glyph unicode="&#xe94a;" glyph-name="like-on" horiz-adv-x="996" d="M898.82 281.008c3.487-9.361 6.792-22.027 7.526-36.893 1.285-25.697-5.14-62.222-41.669-95.261 2.386-16.887 2.386-43.5-12.483-70.298-19.459-35.059-57.823-58.918-113.992-70.849-23.863-5.14-52.498-7.711-85.356-7.711-19.090 0-39.649 0.919-61.495 2.57-120.6-2.386-238.079 12.481-244.687 13.399l-43.136 5.14c-12.483-8.811-27.717-13.951-44.055-13.951h-111.972c-42.035 0-76.363 34.139-76.363 76.355v298.262c0 42.031 34.143 76.355 76.363 76.355h111.972c13.217 0 25.516-3.304 36.345-9.177 7.711 16.887 19.090 36.159 35.978 53.962 0.919 0.919 1.836 1.835 2.936 2.57 57.454 44.235 125.372 203.551 149.602 268.527-2.57 20.191-4.956 63.873 15.419 87.551 8.995 10.462 21.66 16.152 35.428 16.152 14.318 0 62.961-3.304 93.433-45.336 29.002-40.015 30.472-99.848 4.772-178.039-21.66-65.709-23.68-94.892-22.945-106.639 9.912 2.203 19.641 4.221 29.002 5.875 1.651 0.367 42.035 9.361 90.312 11.563 68.652 3.304 118.214-8.626 147.4-35.24 39.835-36.343 35.244-83.146 23.312-112.88 10.279-13.399 22.761-35.24 23.863-63.139 1.101-25.329-7.526-49.925-25.516-72.868zM120.704 83.513c0-14.683 11.932-26.798 26.801-26.614h111.972c14.684 0 26.801 11.931 26.801 26.798v298.262c0 14.683-11.932 26.798-26.801 26.798h-111.972c-14.684 0-26.801-11.931-26.801-26.798v-298.446z" />
<glyph unicode="&#xe94b;" glyph-name="like-request" horiz-adv-x="1224" d="M772.17 51.766c-9.194-3.168-19.089-5.88-29.673-8.129-21.863-4.712-48.098-7.068-78.205-7.068-17.491 0-36.328 0.842-56.34 2.356-8.861-0.175-17.705-0.248-26.482-0.237l2.371 11.934c19.571 48.348 28.544 42.536 53.41 59.648 22.981 15.813 53.499 24.508 100.779 28.319 7.098 0.567 14.829 1.017 23.854 1.395v-48.381c0-14.174 3.599-27.836 10.281-39.838zM431.011 46.118c-27.213 2.509-44.886 4.765-47.24 5.090l-39.522 4.712c-11.435-8.077-25.394-12.788-40.364-12.788h-102.591c-38.514 0-69.964 31.294-69.964 69.992v273.407c0 38.528 31.281 69.992 69.964 69.992h102.591c12.108 0 23.378-3.029 33.3-8.412 7.064 15.48 17.491 33.146 32.962 49.465 0.842 0.842 1.681 1.682 2.69 2.356 52.641 40.549 114.868 186.588 137.066 246.15-2.355 18.508-4.54 58.55 14.128 80.255 8.241 9.59 19.846 14.806 32.458 14.806 13.118 0 57.686-3.029 85.604-41.558 26.571-36.68 27.918-91.527 4.373-163.202-19.846-60.233-21.696-86.984-21.023-97.752 9.081 2.019 17.995 3.869 26.405 5.385h0.169c1.513 0.336 38.514 8.581 82.745 10.599 20.546 0.989 39.227 0.49 56-1.485-18.274-15.319-28.873-38.22-28.873-62.587v-51.616c-20.819-2.702-41.247-6.884-61.155-12.666-45.483-13.208-87.098-34.458-123.524-64.523-83.386-68.829-134.216-162.68-146.202-314.5v-1.118zM1086.231 277.092l-222.992-200.323c-3.999-4.073-9.378-6.182-14.831-6.182-2.726 0-5.488 0.545-8.105 1.601-7.816 3.308-12.469 10.945-12.469 19.419v109.962c-15.23 0-29.586-0.182-43.508-0.51-2.291-0.072-4.653-0.146-6.906-0.218-13.448-0.435-26.425-1.018-38.71-1.999-105.59-8.509-169.126-41.454-217.212-160.251h-22.015c23.299 295.083 194.774 343.701 328.352 343.701v108.252c0 8.545 4.653 16.182 12.469 19.382 2.58 1.091 5.308 1.601 7.996 1.601 5.488 0 10.94-2.146 14.939-6.182l222.992-198.578c8.214-8.182 8.214-21.527 0-29.673zM201.297 88.56v0.169h102.591c13.455 0 24.555 10.937 24.555 24.565v273.407c0 13.459-10.931 24.565-24.555 24.565h-102.591c-13.455 0-24.555-10.937-24.555-24.565v-273.576c0-13.459 10.931-24.565 24.555-24.565z" />
<glyph unicode="&#xe94c;" glyph-name="smile-off" horiz-adv-x="1025" d="M779.655 705.803c-147.188 147.201-386.801 147.212-533.968 0.040-147.184-147.161-147.174-386.777 0.022-533.978 147.145-147.158 386.755-147.15 533.929 0.037 147.168 147.16 147.17 386.758 0.018 533.902zM823.141 749.291c171.168-171.157 171.175-449.699-0.017-620.881-171.192-171.207-449.746-171.207-620.906-0.033-171.21 171.215-171.225 449.774-0.017 620.956 171.175 171.183 449.73 171.183 620.939-0.042zM350.937 556.805c0-28.352 22.983-51.326 51.318-51.326 28.327 0 51.309 22.974 51.309 51.326 0 28.344-22.982 51.318-51.309 51.318-28.338 0-51.318-22.983-51.318-51.318zM583.627 556.805c0-28.352 22.998-51.326 51.334-51.326s51.309 22.974 51.309 51.326c0 28.344-22.982 51.318-51.309 51.318-28.337 0-51.334-22.983-51.334-51.318zM704.95 346.628v-0.002c5.445 12.58-0.354 27.186-12.935 32.639s-27.195-0.347-32.64-12.934c-23.934-55.364-80.523-91.122-144.163-91.122-65.114 0-122.034 35.735-145.015 91.065-3.966 9.558-13.2 15.31-22.932 15.31-3.177 0-6.405-0.613-9.517-1.895-12.67-5.262-18.67-19.795-13.407-32.449 30.702-73.917 105.623-121.676 190.872-121.676 83.453 0 157.934 47.518 189.738 121.064z" />
<glyph unicode="&#xe94d;" glyph-name="smile-on" d="M821.995 748.803c-170.939 170.955-449.053 170.955-619.959 0.042-170.939-170.914-170.922-449.037 0.017-619.983 170.889-170.906 449.002-170.906 619.924 0.033 170.922 170.914 170.914 449.020 0.017 619.908zM348.494 557.496c0 28.292 22.946 51.238 51.238 51.238 28.283 0 51.228-22.938 51.228-51.238 0-28.307-22.946-51.246-51.228-51.246-28.292 0-51.238 22.938-51.238 51.246zM580.816 557.496c0 28.292 22.962 51.238 51.253 51.238 28.283 0 51.228-22.938 51.228-51.238 0-28.307-22.938-51.246-51.228-51.246s-51.253 22.938-51.253 51.246zM701.947 347.648c-31.754-73.43-106.118-120.874-189.439-120.874-85.114 0-159.917 47.684-190.57 121.486-5.255 12.634 0.736 27.143 13.386 32.398 3.107 1.28 6.33 1.892 9.502 1.892 9.717 0 18.937-5.743 22.896-15.286 22.946-55.244 79.777-90.923 144.787-90.923 63.541 0 120.040 35.702 143.936 90.979 5.437 12.568 20.028 18.36 32.588 12.914s18.351-20.028 12.914-32.588v0.002z" />
<glyph unicode="&#xe94e;" glyph-name="smile-request" horiz-adv-x="1181" d="M500.534 246.217c-28.515-55.394-46.354-122.564-52.756-201.37-74.481 15.278-145.437 51.75-203.096 109.414-156.935 156.941-156.948 412.278-0.016 569.187 156.903 156.912 412.233 156.912 569.164-0.038 62.163-62.159 99.697-139.768 112.603-220.59l-18.509 16.476c-18.716 17.58-43.379 27.187-68.754 27.187-13.071 0-26.153-2.543-38.484-7.684-38.104-15.798-61.429-52.735-61.429-92.677v-21.296c-11.278-2.188-22.43-4.867-33.438-8.063-43.765-12.704-83.984-33.231-119.252-62.331-22.518-18.58-42.48-40.169-59.792-64.75-58.46 1.050-109.281 33.56-130.001 83.448-3.635 8.761-12.1 14.034-21.021 14.034-2.912 0-5.871-0.562-8.724-1.737-11.614-4.823-17.114-18.145-12.29-29.744 24.579-59.175 80.074-100.062 145.792-109.468zM1049.242 283.932c7.253-7.22 7.253-18.999 0-26.186l-196.881-176.791c-3.53-3.593-8.279-5.456-13.093-5.456-2.406 0-4.845 0.481-7.156 1.413-6.901 2.92-11.007 9.66-11.007 17.137v97.044c-13.445 0-26.123-0.159-38.412-0.449-2.022-0.063-4.108-0.128-6.098-0.192-11.873-0.385-23.331-0.898-35.14-1.83-92.263-7.445-148.358-36.519-190.815-141.363l-21.405-10.558c20.572 260.421 173.935 313.886 291.871 313.886v95.535c0 7.541 4.108 14.281 11.007 17.106 2.279 0.962 4.685 1.413 7.060 1.413 4.845 0 9.66-1.894 13.19-5.456l196.881-175.251zM379.123 547.776c0-25.989 21.067-47.046 47.040-47.046 25.966 0 47.033 21.057 47.033 47.046 0 25.982-21.067 47.040-47.033 47.040-25.973 0-47.040-21.067-47.040-47.040zM592.411 547.776c0-25.989 21.080-47.046 47.055-47.046s47.033 21.057 47.033 47.046c0 25.982-21.067 47.040-47.033 47.040-25.972 0-47.055-21.067-47.055-47.040z" />
<glyph unicode="&#xe951;" glyph-name="star-request" horiz-adv-x="1210" d="M940.226 500.268l-5.825 5.184c-14.51 13.694-33.674 21.184-53.398 21.184-10.128 0-20.258-1.971-29.802-5.95-29.47-12.212-47.52-40.794-47.52-71.784v-32.14c-14.099-2.229-27.981-5.291-41.588-9.241-38.503-11.177-73.804-29.193-104.725-54.707-50.888-41.986-87.104-101.717-107.077-179.293l-259.143-136.24 49.873 290.79-211.271 205.94 291.971 42.426 130.572 264.571 130.576-264.571 291.968-42.426-34.613-33.74zM1074.86 275.065l-181.685-163.146c-3.258-3.316-7.642-5.035-12.082-5.035-2.221 0-4.471 0.445-6.604 1.302-6.368 2.696-10.159 8.914-10.159 15.815v89.554c-12.409 0-24.106-0.148-35.448-0.414-1.865-0.060-3.791-0.118-5.627-0.178-10.958-0.356-21.53-0.83-31.54-1.629-86.030-6.928-137.796-33.762-176.975-130.511l-19.752-9.742c18.983 240.322 160.511 289.66 269.343 289.66v88.162c0 6.96 3.791 13.179 10.159 15.785 2.104 0.888 4.324 1.302 6.515 1.302 4.471 0 8.914-1.747 12.17-5.035l181.685-161.723c6.693-6.664 6.693-17.532 0-24.166z" />
<glyph unicode="&#xe952;" glyph-name="person-off" horiz-adv-x="1419" d="M539.98 439.318c-120.605 0-219.282 98.629-219.282 219.178s98.676 219.178 219.282 219.178c120.605 0 219.282-98.629 219.282-219.178s-98.676-219.178-219.282-219.178zM884.217 0.963v163.843h-233.341v154.996c-40.682 6.637-79.081 9.926-110.895 9.926-148.015 0-438.563-71.233-438.563-219.178v-109.588h782.799zM953.213 364.76h-233.341v-130.958h233.341v-233.235h131.029v233.235h233.341v130.958h-233.341v233.235h-131.029v-233.235z" />
</font>
</defs>
</svg>
